<svg width="512" height="512" viewBox="0 0 512 512" fill="none" xmlns="http://www.w3.org/2000/svg">
<path d="M502 452H476V342.168C476 336.645 471.523 332.168 466 332.168C460.477 332.168 456 336.645 456 342.168V452H404V142.332H456V252.164C456 257.688 460.477 262.164 466 262.164C471.523 262.164 476 257.688 476 252.164V132.332C476 126.809 471.523 122.332 466 122.332H394C388.477 122.332 384 126.809 384 132.332V452H360V207.668C360 202.145 355.523 197.668 350 197.668H278C272.477 197.668 268 202.145 268 207.668V452H243.668V327C243.668 321.477 239.191 317 233.668 317H161.668C156.145 317 151.668 321.477 151.668 327V452H128V390C128 384.477 123.523 380 118 380H46C40.4766 380 36 384.477 36 390V452H10C4.47656 452 0 456.477 0 462V502C0 507.523 4.47656 512 10 512H502C507.523 512 512 507.523 512 502V462C512 456.477 507.523 452 502 452ZM288 217.668H340V452H288V217.668ZM171.668 337H223.668V452H171.668V337ZM56 400H108V452H56V400ZM492 492H20V472H492V492Z" fill="#08304A"/>
<path d="M46 180.16H89.0703C128.918 180.16 168.824 175.68 207.68 166.844C301.32 145.551 387.047 99.6914 456.625 33.8594V39.5391C456.625 45.0625 461.102 49.5391 466.625 49.5391C472.148 49.5391 476.625 45.0625 476.625 39.5391V10C476.625 4.47656 472.148 0 466.625 0H437.086C431.562 0 427.086 4.47656 427.086 10C427.086 15.5234 431.562 20 437.086 20H442.18C375.324 83.0117 293.066 126.918 203.246 147.344C165.844 155.848 127.43 160.16 89.0703 160.16H46C40.4766 160.16 36 164.637 36 170.16C36 175.684 40.4766 180.16 46 180.16Z" fill="#FF9500"/>
<path d="M466 287.172C463.371 287.172 460.789 288.23 458.93 290.102C457.07 291.961 456 294.531 456 297.172C456 299.801 457.07 302.379 458.93 304.238C460.789 306.102 463.371 307.172 466 307.172C468.629 307.172 471.211 306.102 473.07 304.238C474.93 302.379 476 299.801 476 297.172C476 294.531 474.93 291.961 473.07 290.102C471.211 288.23 468.629 287.172 466 287.172Z" fill="#08304A"/>
</svg>
