<svg width="756" height="686" viewBox="0 0 656 706" fill="none" xmlns="http://www.w3.org/2000/svg">
<rect width="656" height="706" fill="#ffff"/>
<g clip-path="url(#clip0)">
<path d="M655.996 253.898L228.78 -0.0010376L215.931 21.7455L643.148 275.645L655.996 253.898Z" fill="#FF9800" fill-opacity="0.34"/>
<path d="M563.142 275.185L135.925 21.2855L123.077 43.032L550.294 296.931L563.142 275.185Z" fill="#FF9800" fill-opacity="0.34"/>
<path d="M480.899 298.467L53.6827 44.5676L40.8345 66.3141L468.051 320.213L480.899 298.467Z" fill="#FF9800" fill-opacity="0.34"/>
<path d="M377.728 297.63C451.599 297.63 511.484 237.568 511.484 163.479C511.484 89.3889 451.599 29.3273 377.728 29.3273C303.856 29.3273 243.971 89.3889 243.971 163.479C243.971 237.568 303.856 297.63 377.728 297.63Z" fill="#393795"/>
<path opacity="0.3" d="M377.728 187.976C373.012 187.976 368.402 186.573 364.481 183.946C360.56 181.318 357.504 177.583 355.699 173.213C353.894 168.844 353.422 164.035 354.342 159.397C355.262 154.758 357.533 150.497 360.868 147.152C364.202 143.808 368.451 141.53 373.076 140.608C377.701 139.685 382.495 140.158 386.852 141.968C391.209 143.778 394.933 146.843 397.553 150.776C400.173 154.709 401.571 159.332 401.571 164.062C401.564 170.402 399.05 176.481 394.58 180.964C390.11 185.447 384.049 187.969 377.728 187.976ZM377.728 141.315C373.242 141.315 368.857 142.649 365.127 145.148C361.397 147.648 358.49 151.2 356.774 155.357C355.057 159.513 354.608 164.087 355.483 168.5C356.358 172.912 358.518 176.966 361.69 180.147C364.862 183.328 368.903 185.495 373.303 186.372C377.702 187.25 382.263 186.8 386.407 185.078C390.551 183.356 394.093 180.441 396.586 176.7C399.078 172.959 400.408 168.561 400.408 164.062C400.401 158.031 398.01 152.249 393.758 147.985C389.506 143.72 383.741 141.321 377.728 141.315Z" fill="#6C63FF"/>
<path opacity="0.3" d="M377.728 209.557C368.756 209.557 359.986 206.889 352.526 201.89C345.067 196.89 339.253 189.785 335.82 181.472C332.386 173.159 331.488 164.011 333.238 155.186C334.989 146.361 339.309 138.255 345.653 131.892C351.996 125.53 360.079 121.197 368.878 119.441C377.677 117.686 386.798 118.587 395.086 122.03C403.375 125.474 410.459 131.305 415.444 138.786C420.428 146.268 423.089 155.064 423.089 164.062C423.075 176.124 418.291 187.688 409.788 196.217C401.284 204.746 389.754 209.543 377.728 209.557ZM377.728 119.734C368.986 119.734 360.441 122.333 353.173 127.204C345.904 132.075 340.239 138.998 336.894 147.098C333.549 155.198 332.674 164.111 334.379 172.71C336.084 181.309 340.294 189.207 346.475 195.407C352.656 201.606 360.531 205.828 369.105 207.538C377.679 209.249 386.565 208.371 394.641 205.016C402.717 201.661 409.62 195.979 414.477 188.689C419.333 181.4 421.925 172.829 421.925 164.062C421.912 152.309 417.251 141.042 408.966 132.732C400.68 124.421 389.446 119.747 377.728 119.734Z" fill="#6C63FF"/>
<path opacity="0.3" d="M377.728 228.221C365.075 228.221 352.707 224.458 342.187 217.409C331.668 210.359 323.468 200.338 318.627 188.615C313.785 176.891 312.518 163.991 314.986 151.545C317.455 139.099 323.547 127.667 332.494 118.694C341.44 109.722 352.838 103.611 365.248 101.135C377.657 98.6598 390.519 99.9304 402.208 104.786C413.897 109.643 423.888 117.866 430.917 128.417C437.946 138.968 441.698 151.372 441.698 164.062C441.679 181.072 434.933 197.38 422.94 209.408C410.948 221.436 394.688 228.202 377.728 228.221ZM377.728 101.069C365.305 101.069 353.162 104.764 342.834 111.685C332.505 118.607 324.455 128.445 319.701 139.956C314.947 151.466 313.704 164.132 316.127 176.351C318.55 188.571 324.532 199.795 333.316 208.605C342.1 217.414 353.291 223.414 365.474 225.844C377.658 228.275 390.286 227.028 401.763 222.26C413.239 217.492 423.049 209.418 429.95 199.059C436.851 188.7 440.535 176.521 440.535 164.062C440.516 147.361 433.893 131.35 422.118 119.54C410.344 107.731 394.379 101.088 377.728 101.069V101.069Z" fill="#6C63FF"/>
<path opacity="0.3" d="M377.728 252.719C328.986 252.719 289.332 212.948 289.332 164.062C289.332 115.177 328.986 75.4054 377.728 75.4054C426.469 75.4054 466.123 115.177 466.123 164.062C466.123 212.948 426.469 252.719 377.728 252.719ZM377.728 76.5719C329.627 76.5719 290.495 115.82 290.495 164.062C290.495 212.304 329.627 251.552 377.728 251.552C425.828 251.552 464.96 212.304 464.96 164.062C464.96 115.82 425.828 76.5719 377.728 76.5719Z" fill="#6C63FF"/>
<path opacity="0.3" d="M377.728 273.133C317.763 273.133 268.978 224.204 268.978 164.062C268.978 103.92 317.763 54.9911 377.728 54.9911C437.693 54.9911 486.477 103.92 486.477 164.062C486.477 224.204 437.693 273.133 377.728 273.133ZM377.728 56.1576C318.404 56.1576 270.141 104.563 270.141 164.062C270.141 223.561 318.404 271.966 377.728 271.966C437.051 271.966 485.314 223.561 485.314 164.062C485.314 104.563 437.051 56.1576 377.728 56.1576Z" fill="#6C63FF"/>
<path opacity="0.3" d="M377.728 174.561C383.83 174.561 388.777 169.599 388.777 163.479C388.777 157.358 383.83 152.397 377.728 152.397C371.625 152.397 366.678 157.358 366.678 163.479C366.678 169.599 371.625 174.561 377.728 174.561Z" fill="#6C63FF"/>
<path opacity="0.3" d="M406.223 206.64C412.326 206.64 417.273 201.679 417.273 195.558C417.273 189.438 412.326 184.476 406.223 184.476C400.121 184.476 395.174 189.438 395.174 195.558C395.174 201.679 400.121 206.64 406.223 206.64Z" fill="#6C63FF"/>
<path opacity="0.3" d="M328.877 201.974C334.98 201.974 339.927 197.013 339.927 190.892C339.927 184.772 334.98 179.81 328.877 179.81C322.775 179.81 317.828 184.772 317.828 190.892C317.828 197.013 322.775 201.974 328.877 201.974Z" fill="#6C63FF"/>
<path d="M377.728 168.728C380.618 168.728 382.962 166.378 382.962 163.479C382.962 160.58 380.618 158.229 377.728 158.229C374.837 158.229 372.494 160.58 372.494 163.479C372.494 166.378 374.837 168.728 377.728 168.728Z" fill="#FF9800"/>
<path d="M328.877 196.142C331.768 196.142 334.111 193.791 334.111 190.892C334.111 187.993 331.768 185.643 328.877 185.643C325.987 185.643 323.643 187.993 323.643 190.892C323.643 193.791 325.987 196.142 328.877 196.142Z" fill="#FF9800"/>
<path d="M406.223 201.391C409.114 201.391 411.457 199.041 411.457 196.142C411.457 193.242 409.114 190.892 406.223 190.892C403.333 190.892 400.99 193.242 400.99 196.142C400.99 199.041 403.333 201.391 406.223 201.391Z" fill="#FF9800"/>
<path d="M621.979 109.818C624.869 109.818 627.213 107.468 627.213 104.569C627.213 101.67 624.869 99.3193 621.979 99.3193C619.088 99.3193 616.745 101.67 616.745 104.569C616.745 107.468 619.088 109.818 621.979 109.818Z" fill="#FF9800"/>
<path d="M378.018 163.77H376.855V103.694H607.731V104.861H378.018V163.77Z" fill="#2F2E41"/>
<path d="M621.979 119.734C618.988 119.734 616.065 118.844 613.578 117.178C611.092 115.512 609.154 113.143 608.009 110.372C606.865 107.601 606.565 104.552 607.149 101.61C607.732 98.6685 609.172 95.9664 611.287 93.8455C613.401 91.7247 616.096 90.2803 619.029 89.6952C621.962 89.11 625.002 89.4104 627.765 90.5582C630.528 91.706 632.889 93.6497 634.551 96.1435C636.212 98.6374 637.099 101.569 637.099 104.569C637.094 108.589 635.5 112.444 632.665 115.287C629.831 118.13 625.987 119.729 621.979 119.734ZM621.979 90.5703C619.218 90.5703 616.52 91.3913 614.224 92.9295C611.929 94.4677 610.14 96.6539 609.084 99.2118C608.027 101.77 607.751 104.584 608.29 107.3C608.828 110.015 610.157 112.509 612.109 114.467C614.061 116.425 616.548 117.758 619.256 118.298C621.963 118.838 624.769 118.561 627.32 117.502C629.87 116.442 632.05 114.648 633.584 112.346C635.117 110.044 635.936 107.337 635.936 104.569C635.932 100.857 634.46 97.2994 631.843 94.6751C629.227 92.0508 625.679 90.5746 621.979 90.5703V90.5703Z" fill="#2F2E41"/>
<path d="M587.086 260.884C589.976 260.884 592.32 258.534 592.32 255.635C592.32 252.736 589.976 250.385 587.086 250.385C584.195 250.385 581.852 252.736 581.852 255.635C581.852 258.534 584.195 260.884 587.086 260.884Z" fill="#FF9800"/>
<path d="M587.086 270.8C584.095 270.8 581.172 269.91 578.685 268.244C576.199 266.578 574.261 264.209 573.116 261.438C571.972 258.667 571.672 255.618 572.256 252.676C572.839 249.735 574.279 247.032 576.394 244.912C578.509 242.791 581.203 241.346 584.136 240.761C587.069 240.176 590.109 240.476 592.872 241.624C595.635 242.772 597.996 244.716 599.658 247.21C601.319 249.704 602.206 252.635 602.206 255.635C602.201 259.655 600.607 263.51 597.772 266.353C594.938 269.196 591.094 270.795 587.086 270.8ZM587.086 241.636C584.325 241.636 581.627 242.457 579.331 243.996C577.036 245.534 575.247 247.72 574.191 250.278C573.134 252.836 572.858 255.65 573.397 258.366C573.935 261.081 575.264 263.575 577.216 265.533C579.168 267.491 581.655 268.824 584.363 269.364C587.07 269.904 589.876 269.627 592.427 268.568C594.977 267.508 597.157 265.714 598.691 263.412C600.224 261.11 601.043 258.403 601.043 255.635C601.039 251.924 599.567 248.365 596.95 245.741C594.334 243.117 590.786 241.641 587.086 241.636Z" fill="#2F2E41"/>
<path d="M166.625 134.315C169.516 134.315 171.859 131.965 171.859 129.066C171.859 126.167 169.516 123.817 166.625 123.817C163.734 123.817 161.391 126.167 161.391 129.066C161.391 131.965 163.734 134.315 166.625 134.315Z" fill="#FF9800"/>
<path d="M166.625 144.231C163.634 144.231 160.711 143.341 158.224 141.675C155.738 140.009 153.8 137.64 152.656 134.869C151.511 132.098 151.212 129.049 151.795 126.107C152.379 123.166 153.819 120.464 155.933 118.343C158.048 116.222 160.742 114.778 163.675 114.192C166.608 113.607 169.648 113.908 172.411 115.055C175.174 116.203 177.536 118.147 179.197 120.641C180.858 123.135 181.745 126.067 181.745 129.066C181.741 133.087 180.146 136.941 177.312 139.784C174.477 142.627 170.634 144.226 166.625 144.231ZM166.625 115.068C163.864 115.068 161.166 115.889 158.871 117.427C156.575 118.965 154.786 121.151 153.73 123.709C152.674 126.267 152.397 129.081 152.936 131.797C153.474 134.512 154.804 137.007 156.756 138.964C158.708 140.922 161.195 142.255 163.902 142.795C166.609 143.336 169.416 143.058 171.966 141.999C174.516 140.939 176.696 139.145 178.23 136.843C179.764 134.541 180.582 131.835 180.582 129.066C180.578 125.355 179.106 121.797 176.489 119.172C173.873 116.548 170.325 115.072 166.625 115.068V115.068Z" fill="#2F2E41"/>
<path d="M329.459 190.893H328.296V131.973L181.155 129.649L181.173 128.483L329.459 130.825V190.893Z" fill="#2F2E41"/>
<path d="M572.547 256.218H405.642V196.142H406.805V255.052H572.547V256.218Z" fill="#2F2E41"/>
<path d="M653.964 131.982H589.993V136.065H653.964V131.982Z" fill="#2F2E41"/>
<path d="M653.964 143.648H589.993V147.73H653.964V143.648Z" fill="#2F2E41"/>
<path d="M653.964 155.313H589.993V159.396H653.964V155.313Z" fill="#2F2E41"/>
<path d="M619.071 283.048H555.1V287.131H619.071V283.048Z" fill="#2F2E41"/>
<path d="M619.071 294.714H555.1V298.797H619.071V294.714Z" fill="#2F2E41"/>
<path d="M619.071 306.379H555.1V310.462H619.071V306.379Z" fill="#2F2E41"/>
<path d="M198.61 157.063H134.64V161.146H198.61V157.063Z" fill="#2F2E41"/>
<path d="M198.61 168.728H134.64V172.811H198.61V168.728Z" fill="#2F2E41"/>
<path d="M198.61 180.393H134.64V184.476H198.61V180.393Z" fill="#2F2E41"/>
<path d="M382.962 386.874C453.3 386.874 510.321 385.046 510.321 382.791C510.321 380.537 453.3 378.709 382.962 378.709C312.623 378.709 255.602 380.537 255.602 382.791C255.602 385.046 312.623 386.874 382.962 386.874Z" fill="#F2F2F2"/>
<path d="M429.786 404.67H0V406H429.786V404.67Z" fill="#F6F9FC"/>
<path d="M49.0746 119.196C49.0746 119.196 55.1623 136.574 51.416 139.247C47.6697 141.921 64.0597 163.754 64.0597 163.754L83.7276 158.407L72.9571 140.139C72.9571 140.139 71.5523 121.87 71.5523 119.196C71.5523 116.523 49.0746 119.196 49.0746 119.196Z" fill="#FFB8B8"/>
<path opacity="0.1" d="M49.0746 119.196C49.0746 119.196 55.1623 136.574 51.416 139.247C47.6697 141.921 64.0597 163.754 64.0597 163.754L83.7276 158.407L72.9571 140.139C72.9571 140.139 71.5523 121.87 71.5523 119.196C71.5523 116.523 49.0746 119.196 49.0746 119.196Z" fill="black"/>
<path d="M38.8564 243.068C38.8564 243.068 37.0793 265.347 38.8564 276.932C40.6335 288.517 43.2991 320.599 43.2991 320.599C43.2991 320.599 43.2991 381.198 53.073 382.089C62.8469 382.98 69.9553 383.872 70.8438 380.307C71.7323 376.742 66.4011 374.96 69.0667 373.178C71.7323 371.395 72.6209 365.157 69.0667 358.028C65.5126 350.899 69.0667 278.714 69.0667 278.714L85.949 324.164C85.949 324.164 87.726 361.593 89.5031 366.939C91.2802 372.286 87.7261 382.089 93.9458 382.98C100.166 383.872 107.274 378.525 110.828 376.742C114.382 374.96 105.497 374.96 107.274 374.069C109.051 373.178 114.382 370.504 112.605 369.613C110.828 368.722 109.051 325.946 109.051 325.946C109.051 325.946 104.164 234.602 97.9442 231.037C91.7244 227.473 87.726 233.612 87.726 233.612L38.8564 243.068Z" fill="#393795"/>
<path d="M54.8501 378.525V385.654C54.8501 385.654 46.8532 405.034 54.8501 405.034C62.8469 405.034 69.0667 407.042 69.0667 404.368V380.307L54.8501 378.525Z" fill="#2F2E41"/>
<path d="M107.274 378.512V385.641C107.274 385.641 115.271 405.021 107.274 405.021C99.2771 405.021 93.0573 407.029 93.0573 404.356V380.294L107.274 378.512Z" fill="#2F2E41"/>
<path d="M61.5141 132.118C70.3472 132.118 77.5078 124.936 77.5078 116.077C77.5078 107.218 70.3472 100.036 61.5141 100.036C52.681 100.036 45.5204 107.218 45.5204 116.077C45.5204 124.936 52.681 132.118 61.5141 132.118Z" fill="#FFB8B8"/>
<path d="M56.6271 145.931C56.6271 145.931 61.0698 159.299 68.1782 156.625L75.2865 153.952L87.726 239.503C87.726 239.503 77.9521 253.762 63.7355 244.85C49.5188 235.939 56.6271 145.931 56.6271 145.931Z" fill="#FF9800"/>
<path d="M69.0667 143.258L73.0651 134.792C73.0651 134.792 96.6114 145.931 100.166 149.496C103.72 153.06 103.72 158.407 103.72 158.407L97.5 180.687C97.5 180.687 99.2771 229.7 99.2771 231.483C99.2771 233.265 105.497 243.068 101.054 239.503C96.6114 235.939 95.7229 232.374 92.1687 237.721C88.6146 243.068 80.6177 249.306 80.6177 249.306L69.0667 143.258Z" fill="#393795"/>
<path d="M100.166 207.421L97.5 232.374C97.5 232.374 81.5063 246.633 85.0604 247.524C88.6146 248.415 90.3916 244.85 90.3916 244.85C90.3916 244.85 96.6114 251.088 100.166 247.524C103.72 243.959 112.605 210.095 112.605 210.095L100.166 207.421Z" fill="#FFB8B8"/>
<path d="M61.8548 93.4068C58.3092 93.2797 54.5149 93.2168 51.5254 95.1332C50.15 96.0949 48.9436 97.2793 47.9556 98.638C45.044 102.33 42.5283 106.974 43.6098 111.555L44.8659 111.063C44.8659 112.286 44.5949 113.493 44.0726 114.598C44.2494 114.082 44.8418 114.916 44.6832 115.438L43.2995 119.991C43.8713 119.814 44.4736 119.76 45.0677 119.831C45.6617 119.903 46.2341 120.099 46.7478 120.406C47.2616 120.714 47.7053 121.126 48.0502 121.616C48.3951 122.106 48.6335 122.664 48.75 123.252C48.9081 117.964 49.4551 111.9 53.7322 108.804C55.8892 107.242 58.619 106.766 61.2455 106.342C63.6685 105.952 66.2085 105.579 68.5293 106.379C70.8501 107.18 72.8265 109.56 72.3003 111.964C73.3704 111.594 74.5672 112.342 75.0961 113.346C75.5443 114.393 75.7405 115.531 75.6686 116.669C76.8093 117.477 78.1074 115.872 78.5723 114.551C79.6636 111.45 80.6335 108.149 80.0456 104.914C79.4578 101.679 76.8294 98.587 73.5507 98.576C73.9486 98.1376 74.161 97.5611 74.1428 96.9685L71.4403 96.7395C72.1264 96.6421 72.7573 96.3084 73.2251 95.7957C72.1401 96.9931 63.6094 93.4698 61.8548 93.4068Z" fill="#2F2E41"/>
<path d="M61.0699 140.584C61.0699 140.584 53.8366 133.475 51.2334 133.911C48.6303 134.346 45.0761 140.584 45.0761 140.584C45.0761 140.584 23.7512 147.713 24.6397 154.843C25.5283 161.972 35.3022 196.727 35.3022 196.727C35.3022 196.727 43.2991 238.612 36.1908 243.068C29.0824 247.524 69.9552 259.109 70.8438 253.762C71.7323 248.415 73.5094 194.945 70.8438 186.925C68.1782 178.904 61.0699 140.584 61.0699 140.584Z" fill="#393795"/>
<path d="M32.6366 215.442L45.0761 220.789C45.0761 220.789 69.0667 224.353 69.0667 214.551C69.0667 204.748 45.0761 210.095 45.0761 210.095L37.0787 207.53L32.6366 215.442Z" fill="#FFB8B8"/>
<path d="M92.1687 154.843H103.156C103.156 154.843 110.828 188.707 111.717 192.272C112.605 195.836 114.382 212.768 113.494 212.768C112.605 212.768 94.8343 209.204 94.8343 211.877L92.1687 154.843Z" fill="#393795"/>
<path d="M35.3022 149.496L24.6397 152.169L16.6429 199.401C16.6429 199.401 13.9773 211.877 18.42 212.768C22.8627 213.66 35.3022 220.789 35.3022 220.789C35.3022 220.789 37.0793 207.421 40.6335 207.421L31.7481 200.292L37.0793 169.101L35.3022 149.496Z" fill="#393795"/>
<path d="M337.594 378.726H320.349V361.431H337.594V378.726ZM321.676 377.396H336.267V362.762H321.676V377.396Z" fill="#3F3D56"/>
<path d="M348.206 378.727C351.869 378.727 354.838 375.748 354.838 372.074C354.838 368.401 351.869 365.422 348.206 365.422C344.543 365.422 341.573 368.401 341.573 372.074C341.573 375.748 344.543 378.727 348.206 378.727Z" fill="#6C63FF"/>
</g>
<defs>
<clipPath id="clip0">
<rect width="656" height="406" fill="white"/>
</clipPath>
</defs>
</svg>
