<svg width="150" height="200" viewBox="0 0 799 756" fill="none" xmlns="http://www.w3.org/2000/svg">
<rect width="799" height="756" fill="white"/>
<g clip-path="url(#clip0)">
<path d="M23.66 448.57C23.66 448.57 22.98 446.57 21.88 442.85" stroke="#FF9800" stroke-width="9" stroke-miterlimit="10"/>
<path d="M18.66 431.25C-5.64998 337.65 -81.44 -93.73 678.32 175.57" stroke="#FF9800" stroke-width="9" stroke-miterlimit="10" stroke-dasharray="12.04 12.04"/>
<path d="M684.01 177.57L689.66 179.57" stroke="#FF9800" stroke-width="9" stroke-miterlimit="10"/>
<path d="M596.6 510.26C596.605 490.035 589.063 470.535 575.449 455.578C561.835 440.62 543.13 431.28 522.993 429.387C502.857 427.493 482.738 433.182 466.575 445.339C450.411 457.497 439.366 475.248 435.6 495.12L186.01 488.35L188.75 531.23C188.75 531.23 153.16 613.35 340.21 635.23V718.23H556.45V580.23C568.661 573.08 578.791 562.861 585.834 550.587C592.877 538.313 596.588 524.411 596.6 510.26Z" fill="url(#paint0_linear)"/>
<path d="M197.32 533.03C197.32 533.03 163.24 611.67 342.37 632.65V712.17H549.46V501.57L194.66 491.96L197.32 533.03Z" fill="#E5E5E5"/>
<path d="M300.82 204.86C295.42 213.381 286.868 219.418 277.031 221.654C267.194 223.889 256.872 222.14 248.32 216.79L137.13 143.52C128.609 138.12 122.572 129.568 120.336 119.731C118.101 109.894 119.85 99.5719 125.2 91.02C130.599 82.5102 139.145 76.4804 148.972 74.2456C158.799 72.0108 169.111 73.7521 177.66 79.09L288.85 152.36C297.377 157.753 303.423 166.303 305.666 176.14C307.909 185.978 306.167 196.303 300.82 204.86Z" fill="url(#paint1_linear)"/>
<path d="M294.66 200.85C289.641 208.77 281.691 214.382 272.547 216.46C263.404 218.538 253.809 216.913 245.86 211.94L142.47 143.83C134.55 138.811 128.938 130.861 126.86 121.717C124.782 112.574 126.407 102.979 131.38 95.03C136.399 87.1097 144.349 81.4976 153.493 79.4197C162.636 77.3418 172.231 78.9669 180.18 83.94L283.55 152.06C291.471 157.076 297.085 165.022 299.167 174.164C301.248 183.305 299.628 192.899 294.66 200.85Z" fill="#E5E5E5"/>
<path d="M510.14 590.71C553.091 590.71 587.91 555.891 587.91 512.94C587.91 469.989 553.091 435.17 510.14 435.17C467.189 435.17 432.37 469.989 432.37 512.94C432.37 555.891 467.189 590.71 510.14 590.71Z" fill="#E5E5E5"/>
<path d="M496.14 0H198.22C191.455 0 185.97 5.48451 185.97 12.25V569.71C185.97 576.476 191.455 581.96 198.22 581.96H496.14C502.906 581.96 508.39 576.476 508.39 569.71V12.25C508.39 5.48451 502.906 0 496.14 0Z" fill="url(#paint2_linear)"/>
<path d="M490.39 7.87H203.97C196.437 7.87 190.33 13.9768 190.33 21.51V560.47C190.33 568.003 196.437 574.11 203.97 574.11H490.39C497.923 574.11 504.03 568.003 504.03 560.47V21.51C504.03 13.9768 497.923 7.87 490.39 7.87Z" fill="white"/>
<path d="M425.99 22.06C425.083 28.065 422.056 33.5469 417.458 37.5142C412.859 41.4815 406.993 43.6722 400.92 43.69H292.58C286.509 43.6698 280.645 41.4781 276.049 37.511C271.452 33.5439 268.427 28.0633 267.52 22.06H210.12C208.555 22.0587 207.005 22.3658 205.559 22.9637C204.113 23.5617 202.799 24.4388 201.692 25.5448C200.585 26.6509 199.707 27.9643 199.108 29.4099C198.508 30.8556 198.2 32.4051 198.2 33.97V547.97C198.199 549.535 198.506 551.085 199.104 552.531C199.702 553.977 200.579 555.291 201.685 556.398C202.791 557.505 204.104 558.383 205.55 558.982C206.996 559.582 208.545 559.89 210.11 559.89H484.25C485.815 559.891 487.365 559.584 488.811 558.986C490.257 558.388 491.571 557.511 492.678 556.405C493.785 555.299 494.663 553.986 495.262 552.54C495.862 551.094 496.17 549.545 496.17 547.98V33.98C496.171 32.4151 495.864 30.8653 495.266 29.4192C494.668 27.973 493.791 26.6589 492.685 25.5519C491.579 24.4449 490.266 23.5667 488.82 22.9676C487.374 22.3684 485.825 22.06 484.26 22.06H425.99Z" fill="#393795"/>
<path d="M380.58 28.84H314.67C313.565 28.84 312.67 29.7354 312.67 30.84V31.21C312.67 32.3146 313.565 33.21 314.67 33.21H380.58C381.685 33.21 382.58 32.3146 382.58 31.21V30.84C382.58 29.7354 381.685 28.84 380.58 28.84Z" fill="#DBDBDB"/>
<path d="M397.43 33.21C398.877 33.21 400.05 32.037 400.05 30.59C400.05 29.143 398.877 27.97 397.43 27.97C395.983 27.97 394.81 29.143 394.81 30.59C394.81 32.037 395.983 33.21 397.43 33.21Z" fill="#DBDBDB"/>
<path d="M560.42 526.65C537.85 531.87 522.36 517.15 517.14 494.59L465.28 302.03C462.801 291.151 464.728 279.733 470.639 270.269C476.55 260.805 485.966 254.065 496.83 251.52C507.709 249.041 519.127 250.968 528.591 256.879C538.055 262.79 544.795 272.206 547.34 283.07L589.66 480.57C594.88 503.17 582.98 521.43 560.42 526.65Z" fill="url(#paint3_linear)"/>
<path d="M541.522 287.794C537.121 268.75 518.117 256.879 499.073 261.279C480.029 265.679 468.158 284.684 472.558 303.728L520.246 510.12C524.646 529.164 543.651 541.035 562.694 536.635C581.738 532.235 593.609 513.23 589.209 494.186L541.522 287.794Z" fill="#E5E5E5"/>
<path d="M587.59 686.15H291.59V755.15H587.59V686.15Z" fill="url(#paint4_linear)"/>
<path d="M579.59 694.15H299.59V748.15H579.59V694.15Z" fill="#FF9800"/>
<path d="M413.22 182.38L390.28 165.11L400.28 152.11L383.59 139.01L373.16 152.23L349.57 134.48C348.671 133.806 347.578 133.441 346.455 133.441C345.332 133.441 344.239 133.806 343.34 134.48L280.81 181.03C278.44 183.03 276.22 185.32 276.2 190.56H276.13L275.97 262.28V265.47C275.967 266.497 276.167 267.514 276.558 268.464C276.948 269.414 277.522 270.277 278.246 271.005C278.971 271.733 279.831 272.312 280.779 272.707C281.727 273.103 282.743 273.307 283.77 273.31H286.85L346.14 273.44L408.52 273.58C409.547 273.583 410.564 273.383 411.514 272.992C412.464 272.602 413.327 272.028 414.055 271.304C414.783 270.579 415.362 269.719 415.757 268.771C416.153 267.823 416.357 266.807 416.36 265.78L416.53 191H416.66C416.66 185.75 415.59 184.38 413.22 182.38Z" fill="url(#paint5_linear)"/>
<path d="M410.5 192.09C410.5 187.31 409.5 186.09 407.36 184.24L349.29 140.57C348.469 139.954 347.471 139.621 346.445 139.621C345.419 139.621 344.421 139.954 343.6 140.57L286.55 183.05C285.178 184.03 284.074 185.34 283.34 186.858C282.606 188.377 282.266 190.056 282.35 191.74H282.29L282.14 257.18V260.09C282.137 261.982 282.886 263.798 284.221 265.138C285.556 266.479 287.368 267.235 289.26 267.24H292.07L346.17 267.36L403.08 267.49C404.972 267.493 406.788 266.744 408.128 265.409C409.469 264.074 410.225 262.262 410.23 260.37L410.38 192.14L410.5 192.09Z" fill="url(#paint6_linear)"/>
<path d="M283.339 192.002L409.168 192.288L409.011 261.517C409.01 262.066 408.901 262.61 408.689 263.116C408.478 263.623 408.169 264.083 407.78 264.47C407.391 264.858 406.93 265.164 406.422 265.373C405.914 265.582 405.371 265.689 404.822 265.688L287.822 265.422C286.599 265.42 285.428 264.931 284.565 264.065C283.703 263.198 283.22 262.025 283.222 260.802L283.379 192.002L283.339 192.002Z" fill="#6C63FF"/>
<path opacity="0.2" d="M283.339 192.002L409.168 192.288L409.011 261.517C409.01 262.066 408.901 262.61 408.689 263.116C408.478 263.623 408.169 264.083 407.78 264.47C407.391 264.858 406.93 265.164 406.422 265.373C405.914 265.582 405.371 265.689 404.822 265.688L287.822 265.422C286.599 265.42 285.428 264.931 284.565 264.065C283.703 263.198 283.22 262.025 283.222 260.802L283.379 192.002L283.339 192.002Z" fill="white"/>
<path d="M283.35 191.98L283.21 255.57C283.207 256.853 283.457 258.124 283.946 259.31C284.435 260.497 285.152 261.575 286.057 262.484C286.963 263.393 288.038 264.115 289.223 264.609C290.407 265.102 291.677 265.357 292.96 265.36L399.25 265.6" fill="#FF9800"/>
<path d="M409.19 192.26L409.05 255.89C409.047 257.173 408.792 258.443 408.299 259.627C407.805 260.812 407.083 261.887 406.174 262.793C405.265 263.698 404.187 264.415 403 264.904C401.814 265.393 400.543 265.643 399.26 265.64L292.97 265.4" fill="#FF9800"/>
<path d="M343.59 142.23L287.59 183.53C286.245 184.476 285.161 185.747 284.439 187.224C283.717 188.701 283.38 190.338 283.46 191.98L409.35 192.38C409.35 187.73 408.35 186.51 406.27 184.75L349.22 142.25C348.41 141.638 347.424 141.305 346.408 141.301C345.393 141.298 344.404 141.624 343.59 142.23Z" fill="#6C63FF"/>
<path opacity="0.2" d="M343.59 142.23L287.59 183.53C286.245 184.476 285.161 185.747 284.439 187.224C283.717 188.701 283.38 190.338 283.46 191.98L409.35 192.38C409.35 187.73 408.35 186.51 406.27 184.75L349.22 142.25C348.41 141.638 347.424 141.305 346.408 141.301C345.393 141.298 344.404 141.624 343.59 142.23Z" fill="black"/>
<path d="M395.56 156.6L380.33 144.66L343.52 191.28L323.74 175.94L311.35 191.69L340.14 213.68L347.28 219.41L395.56 156.6Z" fill="url(#paint7_linear)"/>
<path d="M394.44 156.31L380.64 145.73L344.07 193.42L323.76 177.85L313.17 191.65L340.38 212.49L347.36 217.72L394.44 156.31Z" fill="white"/>
<path d="M276.94 309.81C271.579 318.267 263.09 324.258 253.327 326.477C243.563 328.695 233.318 326.96 224.83 321.65L130.33 260.12C121.873 254.759 115.882 246.27 113.663 236.507C111.445 226.743 113.18 216.498 118.49 208.01C123.851 199.553 132.34 193.562 142.103 191.343C151.867 189.125 162.112 190.86 170.6 196.17L265.1 257.7C273.557 263.061 279.548 271.55 281.767 281.313C283.985 291.077 282.25 301.322 276.94 309.81Z" fill="url(#paint8_linear)"/>
<path d="M271.92 306.57C266.901 314.49 258.951 320.102 249.807 322.18C240.664 324.258 231.069 322.633 223.12 317.66L134.61 260.03C126.69 255.011 121.078 247.061 119 237.917C116.922 228.774 118.547 219.179 123.52 211.23C128.539 203.31 136.489 197.698 145.633 195.62C154.776 193.542 164.371 195.167 172.32 200.14L260.83 257.77C268.75 262.789 274.362 270.739 276.44 279.883C278.518 289.026 276.893 298.621 271.92 306.57Z" fill="#E5E5E5"/>
<path d="M257.66 411.43C252.326 419.849 243.876 425.816 234.157 428.025C224.438 430.234 214.24 428.506 205.79 423.22L131.21 374.97C122.791 369.636 116.824 361.186 114.615 351.467C112.406 341.748 114.134 331.55 119.42 323.1C124.754 314.681 133.204 308.714 142.923 306.505C152.642 304.296 162.84 306.024 171.29 311.31L245.86 359.57C254.278 364.902 260.245 373.35 262.456 383.066C264.666 392.783 262.942 402.98 257.66 411.43Z" fill="url(#paint9_linear)"/>
<path d="M238.94 513.57C233.558 522.067 225.032 528.088 215.225 530.318C205.418 532.547 195.126 530.805 186.6 525.47L140.41 491.77C131.913 486.388 125.892 477.862 123.662 468.055C121.433 458.248 123.175 447.956 128.51 439.43C133.898 430.94 142.427 424.927 152.234 422.705C162.041 420.483 172.329 422.232 180.85 427.57L227.04 461.26C235.528 466.641 241.544 475.162 243.773 484.962C246.002 494.762 244.265 505.046 238.94 513.57Z" fill="url(#paint10_linear)"/>
<path d="M235.21 511.06C230.191 518.98 222.241 524.592 213.097 526.67C203.954 528.748 194.359 527.123 186.41 522.15L143.34 490.73C135.42 485.711 129.808 477.761 127.73 468.617C125.652 459.474 127.277 449.879 132.25 441.93C137.269 434.01 145.219 428.398 154.363 426.32C163.506 424.242 173.101 425.867 181.05 430.84L224.12 462.26C232.04 467.279 237.652 475.229 239.73 484.373C241.808 493.516 240.183 503.111 235.21 511.06Z" fill="#E5E5E5"/>
<path d="M449.18 323.57H245.18V384.57H449.18V323.57Z" fill="url(#paint11_linear)"/>
<path d="M442.18 329.57H252.18V373.57H442.18V329.57Z" fill="#FF9800"/>
<path d="M795.23 214.52L798.82 215.08L798.26 214.55H798.56L798.09 214.39L733 152.66L717.2 177.59L704.06 200.33L710.15 201.28L707.45 213.6L795.23 214.52Z" fill="url(#paint12_linear)"/>
<path d="M719.93 178.89L707.93 199.7L795.93 214.03L739.25 174.56L719.93 178.89Z" fill="#6C63FF"/>
<path opacity="0.2" d="M719.93 178.89L707.93 199.7L795.93 214.03L739.25 174.56L719.93 178.89Z" fill="black"/>
<path d="M734.38 156.09L795.93 214.03L719.93 178.89L734.38 156.09Z" fill="#393795"/>
<path d="M711.17 211.93L795.69 213.54L716.79 185.52L711.17 211.93Z" fill="#393795"/>
<path d="M253.56 408.82C248.541 416.74 240.591 422.352 231.447 424.43C222.304 426.508 212.709 424.883 204.76 419.91L134.6 374.51C126.68 369.491 121.068 361.541 118.99 352.397C116.912 343.254 118.537 333.659 123.51 325.71C128.521 317.781 136.467 312.159 145.612 310.072C154.756 307.984 164.355 309.601 172.31 314.57L242.47 359.97C250.404 364.99 256.026 372.949 258.104 382.104C260.183 391.26 258.549 400.867 253.56 408.82Z" fill="#E5E5E5"/>
</g>
<defs>
<linearGradient id="paint0_linear" x1="391.32" y1="718.27" x2="391.32" y2="429.04" gradientUnits="userSpaceOnUse">
<stop stop-color="#808080" stop-opacity="0.25"/>
<stop offset="0.54" stop-color="#808080" stop-opacity="0.12"/>
<stop offset="1" stop-color="#808080" stop-opacity="0.1"/>
</linearGradient>
<linearGradient id="paint1_linear" x1="77136.5" y1="44125.1" x2="77136.5" y2="21827.5" gradientUnits="userSpaceOnUse">
<stop stop-color="#808080" stop-opacity="0.25"/>
<stop offset="0.54" stop-color="#808080" stop-opacity="0.12"/>
<stop offset="1" stop-color="#808080" stop-opacity="0.1"/>
</linearGradient>
<linearGradient id="paint2_linear" x1="175874" y1="380756" x2="175874" y2="42078.9" gradientUnits="userSpaceOnUse">
<stop stop-color="#808080" stop-opacity="0.25"/>
<stop offset="0.54" stop-color="#808080" stop-opacity="0.12"/>
<stop offset="1" stop-color="#808080" stop-opacity="0.1"/>
</linearGradient>
<linearGradient id="paint3_linear" x1="92399.3" y1="166630" x2="92399.3" y2="89760" gradientUnits="userSpaceOnUse">
<stop stop-color="#808080" stop-opacity="0.25"/>
<stop offset="0.54" stop-color="#808080" stop-opacity="0.12"/>
<stop offset="1" stop-color="#808080" stop-opacity="0.1"/>
</linearGradient>
<linearGradient id="paint4_linear" x1="188924" y1="57716" x2="188924" y2="52955" gradientUnits="userSpaceOnUse">
<stop stop-color="#808080" stop-opacity="0.25"/>
<stop offset="0.54" stop-color="#808080" stop-opacity="0.12"/>
<stop offset="1" stop-color="#808080" stop-opacity="0.1"/>
</linearGradient>
<linearGradient id="paint5_linear" x1="346.31" y1="273.57" x2="346.31" y2="133.43" gradientUnits="userSpaceOnUse">
<stop stop-opacity="0.12"/>
<stop offset="0.55" stop-opacity="0.09"/>
<stop offset="1" stop-opacity="0.02"/>
</linearGradient>
<linearGradient id="paint6_linear" x1="70193.4" y1="43597.1" x2="70193.4" y2="27247.8" gradientUnits="userSpaceOnUse">
<stop stop-color="#808080" stop-opacity="0.25"/>
<stop offset="0.54" stop-color="#808080" stop-opacity="0.12"/>
<stop offset="1" stop-color="#808080" stop-opacity="0.1"/>
</linearGradient>
<linearGradient id="paint7_linear" x1="46492.4" y1="22000.2" x2="46505.1" y2="16406.6" gradientUnits="userSpaceOnUse">
<stop stop-opacity="0.12"/>
<stop offset="0.55" stop-opacity="0.09"/>
<stop offset="1" stop-opacity="0.02"/>
</linearGradient>
<linearGradient id="paint8_linear" x1="67436.3" y1="54978.3" x2="67436.3" y2="36202.7" gradientUnits="userSpaceOnUse">
<stop stop-color="#808080" stop-opacity="0.25"/>
<stop offset="0.54" stop-color="#808080" stop-opacity="0.12"/>
<stop offset="1" stop-color="#808080" stop-opacity="0.1"/>
</linearGradient>
<linearGradient id="paint9_linear" x1="58035.4" y1="62176.3" x2="58035.4" y2="46949.3" gradientUnits="userSpaceOnUse">
<stop stop-color="#808080" stop-opacity="0.25"/>
<stop offset="0.54" stop-color="#808080" stop-opacity="0.12"/>
<stop offset="1" stop-color="#808080" stop-opacity="0.1"/>
</linearGradient>
<linearGradient id="paint10_linear" x1="46737.6" y1="66526.4" x2="46737.6" y2="54532.8" gradientUnits="userSpaceOnUse">
<stop stop-color="#808080" stop-opacity="0.25"/>
<stop offset="0.54" stop-color="#808080" stop-opacity="0.12"/>
<stop offset="1" stop-color="#808080" stop-opacity="0.1"/>
</linearGradient>
<linearGradient id="paint11_linear" x1="71069.9" y1="23782.3" x2="71069.9" y2="20061.3" gradientUnits="userSpaceOnUse">
<stop stop-opacity="0.12"/>
<stop offset="0.55" stop-opacity="0.09"/>
<stop offset="1" stop-opacity="0.02"/>
</linearGradient>
<linearGradient id="paint12_linear" x1="66199.7" y1="66190.3" x2="68376.4" y2="62755.2" gradientUnits="userSpaceOnUse">
<stop stop-color="#808080" stop-opacity="0.25"/>
<stop offset="0.54" stop-color="#808080" stop-opacity="0.12"/>
<stop offset="1" stop-color="#808080" stop-opacity="0.1"/>
</linearGradient>
<clipPath id="clip0">
<rect width="798.82" height="755.15" fill="white"/>
</clipPath>
</defs>
</svg>
