<svg id="Layer_3" enable-background="new 0 0 64 64" height="512" viewBox="0 0 64 64" width="512" xmlns="http://www.w3.org/2000/svg"><path d="m30.223 50.044-.445-1.949c.65-.149 1.25-.309 1.798-.473l.576 1.914c-.609.184-1.257.355-1.929.508zm3.909-1.205-.766-1.848c.835-.346 1.327-.636 1.593-.816l1.129 1.65c-.5.342-1.158.683-1.956 1.014z"/><path d="m11.777 42.044.445-1.949c-.65-.149-1.25-.309-1.798-.473l-.576 1.914c.609.184 1.257.355 1.929.508z"/><path d="m7.868 40.839.766-1.848c-.835-.346-1.327-.636-1.593-.816l-1.129 1.65c.5.342 1.158.683 1.956 1.014z"/><path d="m9.849 57.536c.608.184 1.257.354 1.929.508l.445-1.949c-.65-.149-1.25-.309-1.798-.473z"/><path d="m5.912 55.825c.5.342 1.158.683 1.956 1.014l.766-1.848c-.835-.346-1.327-.636-1.593-.816z"/><path d="m39 35.25v3.75c0 2.838-7.393 6-18 6s-18-3.162-18-6v-4.36c3.463 2.851 10.892 4.36 18 4.36 7.162 0 13.777-1.47 17.267-3.834l-1.123-1.656c-3.175 2.153-9.361 3.49-16.144 3.49-10.607 0-18-3.162-18-6s7.393-6 18-6c2.705 0 5.335.215 7.814.64l.338-1.971c-2.591-.444-5.334-.669-8.152-.669-9.695 0-20 2.804-20 8v24c0 5.196 10.305 8 20 8s20-2.804 20-8v-19.75zm-18 25.75c-10.607 0-18-3.162-18-6v-4.36c3.463 2.851 10.892 4.36 18 4.36s14.537-1.509 18-4.36v4.36c0 2.838-7.393 6-18 6zm0-8c-10.607 0-18-3.162-18-6v-4.36c3.463 2.851 10.892 4.36 18 4.36s14.537-1.509 18-4.36v4.36c0 2.838-7.393 6-18 6z"/><path d="m26 27h-12c-1.654 0-3 1.346-3 3v2c0 1.654 1.346 3 3 3h12c1.654 0 3-1.346 3-3v-2c0-1.654-1.346-3-3-3zm-5 2h2v4h-2zm-2 4h-2v-4h2zm-6-1v-2c0-.552.448-1 1-1h1v4h-1c-.552 0-1-.448-1-1zm14 0c0 .552-.448 1-1 1h-1v-4h1c.552 0 1 .448 1 1z"/><path d="m51.285 26.777-1.258-1.555c.63-.51 1.177-1.108 1.626-1.779l1.662 1.113c-.56.838-1.244 1.586-2.03 2.221z"/><path d="m53.96 23.445-1.791-.891c.552-1.109.831-2.305.831-3.554s-.279-2.445-.831-3.555l1.791-.891c.69 1.39 1.04 2.885 1.04 4.446s-.35 3.056-1.04 4.445z"/><path d="m45 29c-1.654 0-3-1.346-3-3s1.346-3 3-3 3 1.346 3 3-1.346 3-3 3zm0-4c-.552 0-1 .448-1 1s.448 1 1 1 1-.448 1-1-.448-1-1-1z"/><path d="m45 21c-1.072 0-1.982-.803-2.116-1.867l-.861-6.893c-.015-.117-.023-.237-.023-.357 0-1.59 1.293-2.883 2.883-2.883h.234c1.59 0 2.883 1.293 2.883 2.883 0 .12-.008.24-.022.359l-.861 6.89c-.135 1.065-1.045 1.868-2.117 1.868zm-.117-10c-.487 0-.883.396-.883.883 0 .036.002.072.007.107l.861 6.894c.018.131.246.132.264-.001l.861-6.891c.005-.037.007-.073.007-.109 0-.487-.396-.883-.883-.883z"/><path d="m45 37c-9.925 0-18-8.075-18-18s8.075-18 18-18 18 8.075 18 18-8.075 18-18 18zm0-31c-7.168 0-13 5.832-13 13s5.832 13 13 13 13-5.832 13-13-5.832-13-13-13z" fill="#f0bc5e"/><path d="m45 33c-7.72 0-14-6.28-14-14s6.28-14 14-14 14 6.28 14 14-6.28 14-14 14zm0-26c-6.617 0-12 5.383-12 12s5.383 12 12 12 12-5.383 12-12-5.383-12-12-12z"/></svg>