<svg width="567" height="317" viewBox="0 0 780 674" fill="none" xmlns="http://www.w3.org/2000/svg">
<g clip-path="url(#clip0)">
<g opacity="0.1">
<path opacity="0.1" d="M698.22 477.515C698.22 477.515 635.969 469.071 682.395 574.313C682.395 574.313 724.703 555.375 726.388 512.659C726.731 504.346 724.143 496.19 719.114 489.738C714.085 483.285 706.965 478.983 699.102 477.647L698.22 477.515Z" fill="#6C63FF"/>
<path opacity="0.1" d="M699.134 477.357C699.134 477.357 713.226 536.038 682.443 574.321" stroke="#535461" stroke-miterlimit="10"/>
<path opacity="0.1" d="M681.6 579.743C681.6 579.743 704.014 522.041 745.87 500.637C763.494 491.776 777.888 477.18 786.89 459.042C791.097 450.402 794.537 441.379 797.167 432.084" stroke="#535461" stroke-width="2" stroke-miterlimit="10"/>
<path opacity="0.1" d="M773.704 517.458C766.845 515.971 749.526 498.669 749.526 498.669C749.526 498.669 772.003 490.01 778.871 491.496C781.978 492.401 784.64 494.505 786.318 497.383C787.996 500.261 788.564 503.697 787.907 506.996C787.251 510.295 785.418 513.211 782.781 515.151C780.144 517.092 776.899 517.914 773.704 517.449V517.458Z" fill="#6C63FF"/>
<path opacity="0.1" d="M733.168 550.568C726.166 550.31 706.295 536.321 706.295 536.321C706.295 536.321 727.056 523.801 734.059 524.066C737.269 524.408 740.235 526.011 742.356 528.551C744.477 531.092 745.594 534.379 745.481 537.748C745.367 541.117 744.032 544.314 741.746 546.693C739.46 549.072 736.394 550.454 733.168 550.559V550.568Z" fill="#6C63FF"/>
<path opacity="0.1" d="M764.071 444.097C764.969 451.362 780.142 470.723 780.142 470.723C780.142 470.723 790.133 447.974 789.243 440.71C789.134 438.896 788.67 437.125 787.879 435.506C787.088 433.887 785.987 432.455 784.645 431.298C783.303 430.141 781.748 429.284 780.077 428.78C778.405 428.276 776.652 428.136 774.926 428.368C773.2 428.601 771.539 429.2 770.044 430.13C768.549 431.06 767.252 432.301 766.235 433.775C765.217 435.25 764.5 436.926 764.128 438.702C763.756 440.477 763.737 442.314 764.071 444.097V444.097Z" fill="#6C63FF"/>
<path opacity="0.1" d="M717.129 483.484C720.062 490.126 740.091 503.867 740.091 503.867C740.091 503.867 743.112 479.034 740.179 472.392C739.554 470.697 738.603 469.154 737.384 467.858C736.166 466.562 734.706 465.54 733.094 464.857C731.483 464.174 729.755 463.843 728.016 463.885C726.278 463.927 724.566 464.342 722.987 465.102C721.407 465.863 719.994 466.953 718.835 468.307C717.675 469.661 716.793 471.248 716.244 472.972C715.695 474.695 715.49 476.518 715.643 478.328C715.795 480.137 716.301 481.895 717.129 483.492V483.484Z" fill="#6C63FF"/>
<path opacity="0.1" d="M676.529 528.267C678.341 535.341 695.867 552.411 695.867 552.411C695.867 552.411 702.862 528.475 701.042 521.401C700.703 519.617 700.018 517.925 699.027 516.429C698.037 514.933 696.764 513.665 695.285 512.705C693.807 511.744 692.156 511.11 690.433 510.844C688.711 510.577 686.955 510.682 685.273 511.153C683.592 511.624 682.02 512.451 680.657 513.582C679.294 514.713 678.167 516.125 677.348 517.729C676.528 519.334 676.032 521.097 675.891 522.91C675.751 524.722 675.968 526.546 676.529 528.267Z" fill="#6C63FF"/>
<path opacity="0.25" d="M773.704 517.458C766.845 515.971 749.526 498.669 749.526 498.669C749.526 498.669 772.003 490.01 778.871 491.496C781.978 492.401 784.64 494.505 786.318 497.383C787.996 500.261 788.564 503.697 787.907 506.996C787.251 510.295 785.418 513.211 782.781 515.151C780.144 517.092 776.899 517.914 773.704 517.449V517.458Z" fill="black"/>
<path opacity="0.25" d="M733.168 550.568C726.166 550.31 706.295 536.321 706.295 536.321C706.295 536.321 727.056 523.801 734.059 524.066C737.269 524.408 740.235 526.011 742.356 528.551C744.477 531.092 745.594 534.379 745.481 537.748C745.367 541.117 744.032 544.314 741.746 546.693C739.46 549.072 736.394 550.454 733.168 550.559V550.568Z" fill="black"/>
<path opacity="0.25" d="M764.071 444.097C764.969 451.362 780.142 470.723 780.142 470.723C780.142 470.723 790.133 447.974 789.243 440.71C789.134 438.896 788.67 437.125 787.879 435.506C787.088 433.887 785.987 432.455 784.645 431.298C783.303 430.141 781.748 429.284 780.077 428.78C778.405 428.276 776.652 428.136 774.926 428.368C773.2 428.601 771.539 429.2 770.044 430.13C768.549 431.06 767.252 432.301 766.235 433.775C765.217 435.25 764.5 436.926 764.128 438.702C763.756 440.477 763.737 442.314 764.071 444.097V444.097Z" fill="black"/>
<path opacity="0.25" d="M717.129 483.484C720.062 490.126 740.091 503.867 740.091 503.867C740.091 503.867 743.112 479.034 740.179 472.392C739.554 470.697 738.603 469.154 737.384 467.858C736.166 466.562 734.706 465.54 733.094 464.857C731.483 464.174 729.755 463.843 728.016 463.885C726.278 463.927 724.566 464.342 722.987 465.102C721.407 465.863 719.994 466.953 718.835 468.307C717.675 469.661 716.793 471.248 716.244 472.972C715.695 474.695 715.49 476.518 715.643 478.328C715.795 480.137 716.301 481.895 717.129 483.492V483.484Z" fill="black"/>
<path opacity="0.25" d="M676.529 528.267C678.341 535.341 695.867 552.411 695.867 552.411C695.867 552.411 702.862 528.475 701.042 521.401C700.703 519.617 700.018 517.925 699.027 516.429C698.037 514.933 696.764 513.665 695.285 512.705C693.807 511.744 692.156 511.11 690.433 510.844C688.711 510.577 686.955 510.682 685.273 511.153C683.592 511.624 682.02 512.451 680.657 513.582C679.294 514.713 678.167 516.125 677.348 517.729C676.528 519.334 676.032 521.097 675.891 522.91C675.751 524.722 675.968 526.546 676.529 528.267Z" fill="black"/>
<path opacity="0.1" d="M711.454 605.995C711.454 605.995 733.868 548.293 775.723 526.889C793.34 518.022 807.726 503.423 816.72 485.286C820.927 476.646 824.367 467.623 826.997 458.328" stroke="#535461" stroke-width="2" stroke-miterlimit="10"/>
<path opacity="0.1" d="M803.534 543.726C796.675 542.24 779.355 524.938 779.355 524.938C779.355 524.938 801.833 516.279 808.7 517.765C811.808 518.669 814.47 520.774 816.148 523.652C817.826 526.53 818.394 529.966 817.737 533.265C817.08 536.564 815.248 539.479 812.611 541.42C809.974 543.361 806.729 544.182 803.534 543.718V543.726Z" fill="#6C63FF"/>
<path opacity="0.1" d="M762.99 576.795C755.988 576.538 736.117 562.548 736.117 562.548C736.117 562.548 756.878 550.045 763.88 550.302C767.091 550.643 770.057 552.247 772.178 554.787C774.298 557.327 775.415 560.615 775.302 563.984C775.189 567.352 773.854 570.55 771.568 572.929C769.282 575.308 766.215 576.69 762.99 576.795V576.795Z" fill="#6C63FF"/>
<path opacity="0.1" d="M746.958 509.687C749.891 516.328 769.921 530.069 769.921 530.069C769.921 530.069 772.941 505.236 770.008 498.594C768.469 495.627 765.907 493.382 762.841 492.317C759.775 491.251 756.436 491.445 753.502 492.858C750.567 494.271 748.258 496.797 747.043 499.925C745.828 503.052 745.797 506.545 746.958 509.695V509.687Z" fill="#6C63FF"/>
<path opacity="0.1" d="M706.359 554.52C708.171 561.593 725.697 578.663 725.697 578.663C725.697 578.663 732.691 554.727 730.871 547.654C729.831 544.463 727.668 541.805 724.821 540.218C721.974 538.631 718.656 538.234 715.54 539.107C712.423 539.98 709.74 542.058 708.036 544.92C706.331 547.782 705.732 551.213 706.359 554.52Z" fill="#6C63FF"/>
</g>
<path opacity="0.1" d="M9.41864 356.98C23.2168 418.584 52.4265 471.836 98.5898 497.648C194.525 551.29 410.884 523.626 572.36 491.836C653.948 475.832 728.007 431.615 782.614 366.303L9.41864 356.98Z" fill="#FFB300"/>
<path opacity="0.1" d="M856.183 67.009H767.584C765.553 67.009 763.605 66.1663 762.169 64.6661C760.733 63.1659 759.926 61.1312 759.926 59.0097C759.926 56.8881 760.733 54.8534 762.169 53.3532C763.605 51.853 765.553 51.0103 767.584 51.0103H782.9C780.869 51.0103 778.922 50.1675 777.485 48.6673C776.049 47.1671 775.242 45.1324 775.242 43.0109C775.242 40.8893 776.049 38.8546 777.485 37.3544C778.922 35.8543 780.869 35.0115 782.9 35.0115H771.964C769.933 35.0115 767.985 34.1687 766.549 32.6685C765.112 31.1683 764.306 29.1336 764.306 27.0121C764.306 24.8905 765.112 22.8558 766.549 21.3556C767.985 19.8555 769.933 19.0127 771.964 19.0127H818.206C807.945 14.0312 795.951 10.4861 782.137 8.62633C656.047 -8.29403 611.028 2.89765 595.147 14.438C575.555 28.6352 553.697 39.0797 530.338 44.1109C452.532 60.8569 307.04 81.0319 175.171 37.635C109.63 16.0487 60.9152 52.513 31.7214 113.42H871.563C870.466 95.7189 867.183 79.3797 861.159 65.0663C859.777 66.3167 858.011 67.0063 856.183 67.009Z" fill="#FFB300"/>
<path opacity="0.1" d="M1.8996 228.4C-1.50183 264.229 -0.344571 300.371 5.34118 335.883L783.218 365.598C804.872 339.579 823.053 310.617 837.266 279.501L1.8996 228.4ZM309.56 305.073H294.243C296.274 305.073 298.222 305.916 299.658 307.416C301.095 308.916 301.901 310.951 301.901 313.072C301.901 315.194 301.095 317.229 299.658 318.729C298.222 320.229 296.274 321.072 294.243 321.072H205.644C203.613 321.072 201.666 320.229 200.229 318.729C198.793 317.229 197.986 315.194 197.986 313.072C197.986 310.951 198.793 308.916 200.229 307.416C201.666 305.916 203.613 305.073 205.644 305.073H220.961C218.93 305.073 216.982 304.23 215.546 302.73C214.109 301.23 213.303 299.195 213.303 297.074C213.303 294.952 214.109 292.917 215.546 291.417C216.982 289.917 218.93 289.074 220.961 289.074H210.024C207.993 289.074 206.045 288.231 204.609 286.731C203.173 285.231 202.366 283.196 202.366 281.075C202.366 278.953 203.173 276.919 204.609 275.418C206.045 273.918 207.993 273.075 210.024 273.075H298.623C300.654 273.075 302.602 273.918 304.038 275.418C305.474 276.919 306.281 278.953 306.281 281.075C306.281 283.196 305.474 285.231 304.038 286.731C302.602 288.231 300.654 289.074 298.623 289.074H309.56C311.591 289.074 313.538 289.917 314.975 291.417C316.411 292.917 317.218 294.952 317.218 297.074C317.218 299.195 316.411 301.23 314.975 302.73C313.538 304.23 311.591 305.073 309.56 305.073Z" fill="#FFB300"/>
<path opacity="0.1" d="M871.603 113.976L22.3425 135.562C12.0177 163.301 5.20609 194.659 2.02679 227.163H856.723C862.304 208.069 866.431 188.545 869.067 168.772C871.61 149.668 872.628 131.187 871.603 113.976ZM174.44 184.688H159.123C161.155 184.688 163.102 185.53 164.539 187.031C165.975 188.531 166.782 190.565 166.782 192.687C166.782 194.809 165.975 196.843 164.539 198.343C163.102 199.844 161.155 200.686 159.123 200.686H70.5246C68.4935 200.686 66.5457 199.844 65.1095 198.343C63.6733 196.843 62.8665 194.809 62.8665 192.687C62.8665 190.565 63.6733 188.531 65.1095 187.031C66.5457 185.53 68.4935 184.688 70.5246 184.688H85.8408C83.8098 184.688 81.8619 183.845 80.4257 182.345C78.9896 180.845 78.1827 178.81 78.1827 176.688C78.1827 174.567 78.9896 172.532 80.4257 171.032C81.8619 169.532 83.8098 168.689 85.8408 168.689H74.9041C72.873 168.689 70.9252 167.846 69.489 166.346C68.0528 164.846 67.246 162.811 67.246 160.689C67.246 158.568 68.0528 156.533 69.489 155.033C70.9252 153.533 72.873 152.69 74.9041 152.69H163.503C165.534 152.69 167.482 153.533 168.918 155.033C170.354 156.533 171.161 158.568 171.161 160.689C171.161 162.811 170.354 164.846 168.918 166.346C167.482 167.846 165.534 168.689 163.503 168.689H174.44C176.471 168.689 178.419 169.532 179.855 171.032C181.291 172.532 182.098 174.567 182.098 176.688C182.098 178.81 181.291 180.845 179.855 182.345C178.419 183.845 176.471 184.688 174.44 184.688V184.688Z" fill="#FFB300"/>
<path d="M746.084 673.577C746.084 673.577 710.667 470.665 643.131 437.738C585.904 409.817 524.019 390.995 506.421 385.889C503.794 381.468 500.756 377.327 497.352 373.527C473.301 347.299 458.851 347.789 456.514 348.113C455.405 342.912 454.609 337.643 454.13 332.338C454.058 331.508 453.987 330.736 453.923 329.914L454.13 329.806C453.987 328.237 453.86 326.618 453.748 324.949C463.567 319.476 472.606 312.599 480.605 304.517C480.709 304.874 480.796 305.231 480.908 305.596C498.24 290.292 515.215 274.573 531.832 258.438C536.601 253.781 541.608 248.724 543.23 242.157C543.749 239.897 543.95 237.57 543.826 235.25C544.04 230.268 542.912 225.179 542.721 220.131C542.721 219.301 542.808 218.528 542.912 217.74C544.024 209.479 549.525 202.696 554.039 195.763C565.318 178.244 571.205 157.544 570.913 136.434C571.037 126.319 569.697 116.242 566.939 106.545C563.418 94.241 556.09 81.3141 543.889 78.6241C539.168 77.5863 534.264 78.2339 529.447 77.9101C509.505 76.5817 494.578 59.6447 478.674 47.2326C459.263 32.1571 436.308 22.8504 412.243 20.2995C404.732 19.4692 396.974 19.4111 389.829 21.9018C373.781 27.4811 364.037 44.7086 348.577 51.7906C337.148 57.0544 323.938 56.1992 312.016 60.1512C294.267 66.0459 279.205 85.0585 278.808 104.594C278.808 105.316 278.808 106.039 278.808 106.761C278.808 106.886 278.808 107.01 278.808 107.126C278.609 116.998 281.987 127.052 282.257 137.156C282.257 138.07 282.271 138.986 282.297 139.904C282.21 150.814 280.962 161.756 277.155 172.01C275.104 177.531 272.465 183.924 272.894 189.445C272.656 192.824 273.284 195.996 275.533 198.578L279.372 195.041C278.085 202.32 277.438 209.707 277.441 217.109C277.441 254.42 293.687 287.829 319.312 310.312C319.46 312.797 319.604 315.459 319.741 318.299C320.345 330.603 320.822 346.037 320.687 362.858L283.203 398.849L186.839 444.512C186.839 444.512 98.709 463.957 117.689 593.284L126.75 673.585H207.21L207.027 674.008H326.45L326.521 673.585H610.654L610.599 674.008H621.726V673.585L746.084 673.577ZM457.222 350.172C459.658 355.435 461.575 360.943 462.945 366.611C460.132 361.156 458.054 355.323 456.769 349.275L456.888 349.499L457.222 350.172ZM320.655 366.777C320.655 368.36 320.629 369.957 320.576 371.567L320.385 371.85C320.372 370.141 320.463 368.432 320.655 366.735V366.777Z" fill="url(#paint0_linear)"/>
<path d="M488.657 387.143L472.761 545.719L387.715 573.947C387.715 573.947 277.234 552.361 305.848 490.093C326.203 445.799 325.639 366.644 323.62 324.633C322.825 307.58 321.744 296.646 321.744 296.646C321.744 296.646 466.402 164.637 454.48 283.362C452.175 306.352 452.04 324.326 453.319 338.374C458.684 396.856 488.657 387.143 488.657 387.143Z" fill="#FDC2CC"/>
<path opacity="0.03" d="M488.657 387.143L472.761 545.719L387.715 573.947C387.715 573.947 277.234 552.361 305.848 490.093C326.203 445.799 325.639 366.644 323.62 324.633C322.825 307.58 321.744 296.646 321.744 296.646C321.744 296.646 466.402 164.637 454.48 283.362C452.175 306.352 452.04 324.326 453.319 338.374C458.684 396.856 488.657 387.143 488.657 387.143Z" fill="black"/>
<path opacity="0.1" d="M454.48 280.871C452.175 303.861 452.04 321.836 453.319 335.883C432.897 347.529 409.58 352.449 386.432 349.997C363.284 347.545 341.387 337.835 323.62 322.143C322.825 305.09 321.744 294.155 321.744 294.155C321.744 294.155 466.402 162.147 454.48 280.871Z" fill="black"/>
<path d="M398.047 345.639C461.698 345.639 513.297 291.74 513.297 225.253C513.297 158.766 461.698 104.868 398.047 104.868C334.397 104.868 282.798 158.766 282.798 225.253C282.798 291.74 334.397 345.639 398.047 345.639Z" fill="#FDC2CC"/>
<path opacity="0.03" d="M398.047 345.639C461.698 345.639 513.297 291.74 513.297 225.253C513.297 158.766 461.698 104.868 398.047 104.868C334.397 104.868 282.798 158.766 282.798 225.253C282.798 291.74 334.397 345.639 398.047 345.639Z" fill="black"/>
<path opacity="0.1" d="M208.085 547.38C208.085 547.38 245.441 627.083 247.428 673.992Z" fill="black"/>
<path opacity="0.1" d="M615.034 593.051L604.304 674H615.034V593.051Z" fill="black"/>
<path opacity="0.1" d="M216.43 673.992L275.645 533.265C275.645 533.265 292.336 500.056 296.31 466.846C300.284 433.636 321.744 381.331 321.744 381.331C321.744 381.331 374.997 310.76 399.637 320.723C424.276 330.686 378.177 368.047 378.177 368.047C378.177 368.047 445.737 395.445 399.637 476.809C353.537 558.173 352.742 543.228 352.742 543.228L330.09 673.992H216.43Z" fill="black"/>
<path d="M214.841 673.992L274.055 533.265C274.055 533.265 290.746 500.056 294.72 466.846C297.248 445.733 306.841 416.898 313.494 398.691C317.836 386.788 324.226 375.814 332.347 366.312C349.563 346.187 380.831 313.732 398.047 320.706C422.687 330.669 376.587 368.03 376.587 368.03C376.587 368.03 444.147 395.428 398.047 476.792C351.948 558.156 351.153 543.212 351.153 543.212L328.5 673.975L214.841 673.992Z" fill="#FDC2CC"/>
<path opacity="0.15" d="M433.417 160.079C434.734 160.079 435.801 158.964 435.801 157.589C435.801 156.213 434.734 155.098 433.417 155.098C432.1 155.098 431.032 156.213 431.032 157.589C431.032 158.964 432.1 160.079 433.417 160.079Z" fill="white"/>
<path opacity="0.15" d="M422.289 165.061C423.606 165.061 424.674 163.946 424.674 162.57C424.674 161.194 423.606 160.079 422.289 160.079C420.972 160.079 419.905 161.194 419.905 162.57C419.905 163.946 420.972 165.061 422.289 165.061Z" fill="white"/>
<path opacity="0.1" d="M316.173 73.543C327.674 69.6574 340.438 70.496 351.471 65.3319C366.389 58.3412 375.792 41.4209 391.275 35.9413C398.174 33.5003 405.662 33.5917 412.902 34.3721C436.187 36.9034 458.361 46.0551 477.013 60.832C492.361 73.0282 506.763 89.658 526.006 90.9615C530.655 91.277 535.385 90.6377 539.939 91.6589C551.734 94.2991 558.8 106.993 562.194 119.057C566.12 133.354 567.041 148.368 564.892 163.071C562.744 177.774 557.578 191.818 549.747 204.24C545.391 211.048 540.082 217.715 539.009 225.826C537.96 233.78 541.203 242.024 539.311 249.812C537.721 256.263 532.952 261.228 528.311 265.802C512.282 281.638 495.9 297.067 479.167 312.089C470.471 283.229 483.228 252.153 481.241 221.974C480.446 210.218 476.472 197.382 466.545 191.836C457.254 186.655 445.379 189.345 435.976 184.364C425.484 178.843 421.177 165.766 413.244 156.717C399.732 141.274 376.277 139.282 357.384 146.256C338.491 153.23 323.048 167.576 308.105 181.566L280.946 207.013C275.645 200.769 279.666 191.188 282.536 183.384C286.812 171.686 287.75 159.075 287.464 146.654C287.233 136.691 283.942 126.853 284.133 117.156C284.515 98.0269 299.044 79.3298 316.173 73.543Z" fill="black"/>
<path d="M316.173 71.0522C327.674 67.1667 340.438 68.0052 351.471 62.8411C366.389 55.8505 375.792 38.9301 391.275 33.4505C398.174 31.0096 405.662 31.1009 412.902 31.8813C436.187 34.4126 458.361 43.5644 477.013 58.3412C492.361 70.5375 506.763 87.1673 526.006 88.4708C530.655 88.7862 535.385 88.147 539.939 89.1682C551.734 91.8083 558.8 104.503 562.194 116.566C566.12 130.863 567.041 145.877 564.892 160.58C562.744 175.283 557.578 189.327 549.747 201.749C545.391 208.557 540.082 215.224 539.009 223.336C537.96 231.289 541.203 239.534 539.311 247.321C537.721 253.772 532.952 258.737 528.311 263.312C512.282 279.147 495.9 294.576 479.167 309.598C470.471 280.739 483.228 249.663 481.241 219.483C480.446 207.727 476.472 194.891 466.545 189.345C457.254 184.165 445.379 186.855 435.976 181.873C425.484 176.352 421.177 163.276 413.244 154.226C399.732 138.784 376.277 136.791 357.384 143.765C338.491 150.739 323.048 165.086 308.105 179.075L280.946 204.522C275.645 198.279 279.666 188.698 282.536 180.893C286.812 169.195 287.75 156.584 287.464 144.163C287.233 134.201 283.942 124.362 284.133 114.665C284.515 95.5361 299.044 76.839 316.173 71.0522Z" fill="#865A61"/>
</g>
<defs>
<linearGradient id="paint0_linear" x1="430.54" y1="673.992" x2="430.54" y2="19.7432" gradientUnits="userSpaceOnUse">
<stop stop-color="#393795" stop-opacity="0.6"/>
<stop offset="0.54" stop-color="#808080" stop-opacity="0.12"/>
<stop offset="1" stop-color="#808080" stop-opacity="0.1"/>
</linearGradient>
<clipPath id="clip0">
<rect width="872" height="674" fill="white"/>
</clipPath>
</defs>
</svg>
