<svg width="567" height="317" viewBox="0 0 567 317" fill="none" xmlns="http://www.w3.org/2000/svg">
<g opacity="0.1">
<g opacity="0.1">
<path opacity="0.1" fill-rule="evenodd" clip-rule="evenodd" d="M580.718 308.041C580.718 308.041 561.543 315.364 513.608 315.364C513.608 315.364 353.077 316.676 290.359 316.676C227.641 316.676 67.11 315.364 67.11 315.364C19.1753 315.364 0 308.041 0 308.041H580.718Z" fill="black"/>
</g>
</g>
<path fill-rule="evenodd" clip-rule="evenodd" d="M68.7826 0H510.277C519.37 0 527.007 7.22947 527.007 15.8273V294.564C527.007 303.162 526.952 310.391 517.713 310.391H62.2763C52.9204 310.391 52.0522 303.162 52.0522 294.564V15.8273C52.0522 7.22947 59.69 0 68.7826 0Z" fill="#EEEEEE"/>
<g style="mix-blend-mode:multiply">
<path style="mix-blend-mode:multiply" fill-rule="evenodd" clip-rule="evenodd" d="M68.7826 0H510.277C519.37 0 527.007 7.22947 527.007 15.8273V294.564C527.007 303.162 526.952 310.391 517.713 310.391H62.2763C52.9204 310.391 52.0522 303.162 52.0522 294.564V15.8273C52.0522 7.22947 59.69 0 68.7826 0Z" fill="url(#paint0_linear)" fill-opacity="0.1"/>
</g>
<path fill-rule="evenodd" clip-rule="evenodd" d="M68.7825 2.12561C60.9324 2.12561 54.2991 8.40196 54.2991 15.8273V294.564C54.2991 304.835 55.9493 308.266 62.2763 308.266H517.713C523.685 308.266 524.761 305.614 524.761 294.564V15.8273C524.761 8.40196 518.127 2.12561 510.277 2.12561H68.7825Z" stroke="white" stroke-opacity="0.25" stroke-width="3.75"/>
<path d="M509.305 23.3771H70.3303V282.551H509.305V23.3771Z" fill="#2B2B2B"/>
<mask id="mask0" mask-type="alpha" maskUnits="userSpaceOnUse" x="70" y="23" width="440" height="260">
<path d="M509.305 23.3771H70.3303V282.551H509.305V23.3771Z" fill="white"/>
</mask>
<g mask="url(#mask0)">
<path d="M510.338 21.5173H70.3304V290.847H510.338V21.5173Z" fill="#F6F9FC"/>
<path d="M163.246 46.5966H70.3304V290.847H163.246V46.5966Z" fill="white"/>
<path d="M497.66 57.1372H400.151C399.087 57.1372 398.224 57.9529 398.224 58.959V100.385C398.224 101.392 399.087 102.207 400.151 102.207H497.66C498.725 102.207 499.587 101.392 499.587 100.385V58.959C499.587 57.9529 498.725 57.1372 497.66 57.1372Z" fill="white"/>
<path d="M421.261 92.3937C413.84 92.3937 407.823 86.6981 407.823 79.6723C407.823 72.6465 413.84 66.9509 421.261 66.9509C428.683 66.9509 434.7 72.6465 434.7 79.6723C434.7 86.6981 428.683 92.3937 421.261 92.3937ZM421.261 91.6667C428.259 91.6667 433.932 86.2966 433.932 79.6723C433.932 73.0479 428.259 67.6778 421.261 67.6778C414.264 67.6778 408.591 73.0479 408.591 79.6723C408.591 86.2966 414.264 91.6667 421.261 91.6667Z" fill="#F6F9FC"/>
<path fill-rule="evenodd" clip-rule="evenodd" d="M421.453 92.3028V91.2123C414.562 91.2123 408.975 85.9236 408.975 79.3996C408.975 72.8756 414.562 67.5869 421.453 67.5869V66.4965C413.926 66.4965 407.823 72.2734 407.823 79.3996C407.823 86.5258 413.926 92.3028 421.453 92.3028Z" fill="#FAB633"/>
<path d="M385.547 57.1372H288.038C286.973 57.1372 286.111 57.9529 286.111 58.959V100.385C286.111 101.392 286.973 102.207 288.038 102.207H385.547C386.611 102.207 387.474 101.392 387.474 100.385V58.959C387.474 57.9529 386.611 57.1372 385.547 57.1372Z" fill="white"/>
<path d="M309.916 92.3937C302.494 92.3937 296.477 86.6981 296.477 79.6723C296.477 72.6465 302.494 66.9509 309.916 66.9509C317.337 66.9509 323.354 72.6465 323.354 79.6723C323.354 86.6981 317.337 92.3937 309.916 92.3937ZM309.916 91.6667C316.913 91.6667 322.586 86.2966 322.586 79.6723C322.586 73.0479 316.913 67.6778 309.916 67.6778C302.918 67.6778 297.245 73.0479 297.245 79.6723C297.245 86.2966 302.918 91.6667 309.916 91.6667Z" fill="#F6F9FC"/>
<path fill-rule="evenodd" clip-rule="evenodd" d="M309.916 92.5754V91.485C303.024 91.485 297.437 86.1962 297.437 79.6722C297.437 73.1482 303.024 67.8595 309.916 67.8595C316.807 67.8595 322.394 73.1482 322.394 79.6722H323.546C323.546 72.546 317.443 66.7691 309.916 66.7691C302.388 66.7691 296.285 72.546 296.285 79.6722C296.285 86.7984 302.388 92.5754 309.916 92.5754Z" fill="#00C9A7"/>
<path d="M273.433 57.1372H175.924C174.86 57.1372 173.997 57.9529 173.997 58.959V100.385C173.997 101.392 174.86 102.207 175.924 102.207H273.433C274.497 102.207 275.36 101.392 275.36 100.385V58.959C275.36 57.9529 274.497 57.1372 273.433 57.1372Z" fill="white"/>
<path d="M197.802 92.3937C190.38 92.3937 184.364 86.6981 184.364 79.6723C184.364 72.6465 190.38 66.9509 197.802 66.9509C205.224 66.9509 211.24 72.6465 211.24 79.6723C211.24 86.6981 205.224 92.3937 197.802 92.3937ZM197.802 91.6667C204.8 91.6667 210.472 86.2966 210.472 79.6723C210.472 73.0479 204.8 67.6778 197.802 67.6778C190.804 67.6778 185.132 73.0479 185.132 79.6723C185.132 86.2966 190.804 91.6667 197.802 91.6667Z" fill="#F6F9FC"/>
<path fill-rule="evenodd" clip-rule="evenodd" d="M197.994 92.5754V91.4849C191.102 91.4849 185.516 86.1962 185.516 79.6722H184.364C184.364 86.7984 190.466 92.5754 197.994 92.5754Z" fill="#6B15B6"/>
<path d="M510.338 21.8808H70.3304V45.8697H510.338V21.8808Z" fill="white"/>
<path d="M163.246 45.5062V21.8808" stroke="#F6F9FC" stroke-width="2" stroke-linecap="square"/>
<path d="M433.932 40.4177C437.749 40.4177 440.843 37.4885 440.843 33.8753C440.843 30.262 437.749 27.3328 433.932 27.3328C430.115 27.3328 427.021 30.262 427.021 33.8753C427.021 37.4885 430.115 40.4177 433.932 40.4177Z" fill="#ECF1F7"/>
<path d="M497.276 113.111H175.924C174.86 113.111 173.997 113.927 173.997 114.933V289.026C173.997 290.032 174.86 290.847 175.924 290.847H497.276C498.341 290.847 499.203 290.032 499.203 289.026V114.933C499.203 113.927 498.341 113.111 497.276 113.111Z" fill="white"/>
<path d="M183.98 138.918H488.837" stroke="#F6F9FC" stroke-width="2" stroke-linecap="square"/>
<path d="M380.947 138.918H411.663" stroke="#6B15B6" stroke-width="2" stroke-linecap="square"/>
<path d="M184.01 175.628V174.901H186.991V175.628H184.01ZM188.482 175.628V174.901H191.464V175.628H188.482ZM192.955 175.628V174.901H195.937V175.628H192.955ZM197.427 175.628V174.901H200.409V175.628H197.427ZM201.9 175.628V174.901H204.882V175.628H201.9ZM206.373 175.628V174.901H209.354V175.628H206.373ZM210.845 175.628V174.901H213.827V175.628H210.845ZM215.318 175.628V174.901H218.299V175.628H215.318ZM219.79 175.628V174.901H222.772V175.628H219.79ZM224.263 175.628V174.901H227.244V175.628H224.263ZM228.735 175.628V174.901H231.717V175.628H228.735ZM233.208 175.628V174.901H236.19V175.628H233.208ZM237.68 175.628V174.901H240.662V175.628H237.68ZM242.153 175.628V174.901H245.135V175.628H242.153ZM246.626 175.628V174.901H249.607V175.628H246.626ZM251.098 175.628V174.901H254.08V175.628H251.098ZM255.571 175.628V174.901H258.552V175.628H255.571ZM260.043 175.628V174.901H263.025V175.628H260.043ZM264.516 175.628V174.901H267.498V175.628H264.516ZM268.988 175.628V174.901H271.97V175.628H268.988ZM273.461 175.628V174.901H276.443V175.628H273.461ZM277.933 175.628V174.901H280.915V175.628H277.933ZM282.406 175.628V174.901H285.388V175.628H282.406ZM286.879 175.628V174.901H289.86V175.628H286.879ZM291.351 175.628V174.901H294.333V175.628H291.351ZM295.824 175.628V174.901H298.805V175.628H295.824ZM300.296 175.628V174.901H303.278V175.628H300.296ZM304.769 175.628V174.901H307.751V175.628H304.769ZM309.241 175.628V174.901H312.223V175.628H309.241ZM313.714 175.628V174.901H316.696V175.628H313.714ZM318.187 175.628V174.901H321.168V175.628H318.187ZM322.659 175.628V174.901H325.641V175.628H322.659ZM327.132 175.628V174.901H330.113V175.628H327.132ZM331.604 175.628V174.901H334.586V175.628H331.604ZM336.077 175.628V174.901H339.058V175.628H336.077ZM340.549 175.628V174.901H343.531V175.628H340.549ZM345.022 175.628V174.901H348.004V175.628H345.022ZM349.494 175.628V174.901H352.476V175.628H349.494ZM353.967 175.628V174.901H356.949V175.628H353.967ZM358.44 175.628V174.901H361.421V175.628H358.44ZM362.912 175.628V174.901H365.894V175.628H362.912ZM367.385 175.628V174.901H370.366V175.628H367.385ZM371.857 175.628V174.901H374.839V175.628H371.857ZM376.33 175.628V174.901H379.311V175.628H376.33ZM380.802 175.628V174.901H383.784V175.628H380.802ZM385.275 175.628V174.901H388.257V175.628H385.275ZM389.747 175.628V174.901H392.729V175.628H389.747ZM394.22 175.628V174.901H397.202V175.628H394.22ZM398.693 175.628V174.901H401.674V175.628H398.693ZM403.165 175.628V174.901H406.147V175.628H403.165ZM407.638 175.628V174.901H410.619V175.628H407.638ZM412.11 175.628V174.901H415.092V175.628H412.11ZM416.583 175.628V174.901H419.565V175.628H416.583ZM421.055 175.628V174.901H424.037V175.628H421.055ZM425.528 175.628V174.901H428.51V175.628H425.528ZM430 175.628V174.901H432.982V175.628H430ZM434.473 175.628V174.901H437.455V175.628H434.473ZM438.946 175.628V174.901H441.927V175.628H438.946ZM443.418 175.628V174.901H446.4V175.628H443.418ZM447.891 175.628V174.901H450.872V175.628H447.891ZM452.363 175.628V174.901H455.345V175.628H452.363ZM456.836 175.628V174.901H459.818V175.628H456.836ZM461.308 175.628V174.901H464.29V175.628H461.308ZM465.781 175.628V174.901H468.763V175.628H465.781ZM470.254 175.628V174.901H473.235V175.628H470.254ZM474.726 175.628V174.901H477.708V175.628H474.726ZM479.199 175.628V174.901H482.18V175.628H479.199ZM483.671 175.628V174.901H486.653V175.628H483.671ZM488.144 175.628V174.901H489.977V175.628H488.144Z" fill="#F6F9FC"/>
<path d="M184.01 155.637V154.91H186.991V155.637H184.01ZM188.482 155.637V154.91H191.464V155.637H188.482ZM192.955 155.637V154.91H195.937V155.637H192.955ZM197.427 155.637V154.91H200.409V155.637H197.427ZM201.9 155.637V154.91H204.882V155.637H201.9ZM206.373 155.637V154.91H209.354V155.637H206.373ZM210.845 155.637V154.91H213.827V155.637H210.845ZM215.318 155.637V154.91H218.299V155.637H215.318ZM219.79 155.637V154.91H222.772V155.637H219.79ZM224.263 155.637V154.91H227.244V155.637H224.263ZM228.735 155.637V154.91H231.717V155.637H228.735ZM233.208 155.637V154.91H236.19V155.637H233.208ZM237.68 155.637V154.91H240.662V155.637H237.68ZM242.153 155.637V154.91H245.135V155.637H242.153ZM246.626 155.637V154.91H249.607V155.637H246.626ZM251.098 155.637V154.91H254.08V155.637H251.098ZM255.571 155.637V154.91H258.552V155.637H255.571ZM260.043 155.637V154.91H263.025V155.637H260.043ZM264.516 155.637V154.91H267.498V155.637H264.516ZM268.988 155.637V154.91H271.97V155.637H268.988ZM273.461 155.637V154.91H276.443V155.637H273.461ZM277.933 155.637V154.91H280.915V155.637H277.933ZM282.406 155.637V154.91H285.388V155.637H282.406ZM286.879 155.637V154.91H289.86V155.637H286.879ZM291.351 155.637V154.91H294.333V155.637H291.351ZM295.824 155.637V154.91H298.805V155.637H295.824ZM300.296 155.637V154.91H303.278V155.637H300.296ZM304.769 155.637V154.91H307.751V155.637H304.769ZM309.241 155.637V154.91H312.223V155.637H309.241ZM313.714 155.637V154.91H316.696V155.637H313.714ZM318.187 155.637V154.91H321.168V155.637H318.187ZM322.659 155.637V154.91H325.641V155.637H322.659ZM327.132 155.637V154.91H330.113V155.637H327.132ZM331.604 155.637V154.91H334.586V155.637H331.604ZM336.077 155.637V154.91H339.058V155.637H336.077ZM340.549 155.637V154.91H343.531V155.637H340.549ZM345.022 155.637V154.91H348.004V155.637H345.022ZM349.494 155.637V154.91H352.476V155.637H349.494ZM353.967 155.637V154.91H356.949V155.637H353.967ZM358.44 155.637V154.91H361.421V155.637H358.44ZM362.912 155.637V154.91H365.894V155.637H362.912ZM367.385 155.637V154.91H370.366V155.637H367.385ZM371.857 155.637V154.91H374.839V155.637H371.857ZM376.33 155.637V154.91H379.311V155.637H376.33ZM380.802 155.637V154.91H383.784V155.637H380.802ZM385.275 155.637V154.91H388.257V155.637H385.275ZM389.747 155.637V154.91H392.729V155.637H389.747ZM394.22 155.637V154.91H397.202V155.637H394.22ZM398.693 155.637V154.91H401.674V155.637H398.693ZM403.165 155.637V154.91H406.147V155.637H403.165ZM407.638 155.637V154.91H410.619V155.637H407.638ZM412.11 155.637V154.91H415.092V155.637H412.11ZM416.583 155.637V154.91H419.565V155.637H416.583ZM421.055 155.637V154.91H424.037V155.637H421.055ZM425.528 155.637V154.91H428.51V155.637H425.528ZM430 155.637V154.91H432.982V155.637H430ZM434.473 155.637V154.91H437.455V155.637H434.473ZM438.946 155.637V154.91H441.927V155.637H438.946ZM443.418 155.637V154.91H446.4V155.637H443.418ZM447.891 155.637V154.91H450.872V155.637H447.891ZM452.363 155.637V154.91H455.345V155.637H452.363ZM456.836 155.637V154.91H459.818V155.637H456.836ZM461.308 155.637V154.91H464.29V155.637H461.308ZM465.781 155.637V154.91H468.763V155.637H465.781ZM470.254 155.637V154.91H473.235V155.637H470.254ZM474.726 155.637V154.91H477.708V155.637H474.726ZM479.199 155.637V154.91H482.18V155.637H479.199ZM483.671 155.637V154.91H486.653V155.637H483.671ZM488.144 155.637V154.91H489.977V155.637H488.144Z" fill="#F6F9FC"/>
<path d="M184.755 275.945H184.01V273.037H184.755V275.945ZM184.755 271.584H184.01V268.676H184.755V271.584ZM184.755 267.222H184.01V264.314H184.755V267.222ZM184.755 262.86H184.01V259.953H184.755V262.86ZM184.755 258.499H184.01V255.591H184.755V258.499ZM184.755 254.137H184.01V251.229H184.755V254.137ZM184.755 249.775H184.01V246.868H184.755V249.775ZM184.755 245.414H184.01V242.506H184.755V245.414ZM184.755 241.052H184.01V238.144H184.755V241.052ZM184.755 236.691H184.01V233.783H184.755V236.691ZM184.755 232.329H184.01V229.421H184.755V232.329ZM184.755 227.967H184.01V225.06H184.755V227.967ZM184.755 223.606H184.01V220.698H184.755V223.606ZM184.755 219.244H184.01V216.336H184.755V219.244ZM184.755 214.882H184.01V211.975H184.755V214.882ZM184.755 210.521H184.01V207.613H184.755V210.521ZM184.755 206.159H184.01V203.251H184.755V206.159ZM184.755 201.798H184.01V198.89H184.755V201.798ZM184.755 197.436H184.01V194.528H184.755V197.436ZM184.755 193.074H184.01V190.167H184.755V193.074ZM184.755 188.713H184.01V185.805H184.755V188.713ZM184.755 184.351H184.01V181.443H184.755V184.351ZM184.755 179.99H184.01V177.082H184.755V179.99ZM184.755 175.628H184.01V172.72H184.755V175.628ZM184.755 171.266H184.01V168.359H184.755V171.266ZM184.755 166.905H184.01V163.997H184.755V166.905ZM184.755 162.543H184.01V159.635H184.755V162.543ZM184.755 158.181H184.01V155.274H184.755V158.181Z" fill="#F6F9FC"/>
<path d="M210.157 275.945H209.411V273.037H210.157V275.945ZM210.157 271.584H209.411V268.676H210.157V271.584ZM210.157 267.222H209.411V264.314H210.157V267.222ZM210.157 262.86H209.411V259.953H210.157V262.86ZM210.157 258.499H209.411V255.591H210.157V258.499ZM210.157 254.137H209.411V251.229H210.157V254.137ZM210.157 249.775H209.411V246.868H210.157V249.775ZM210.157 245.414H209.411V242.506H210.157V245.414ZM210.157 241.052H209.411V238.144H210.157V241.052ZM210.157 236.691H209.411V233.783H210.157V236.691ZM210.157 232.329H209.411V229.421H210.157V232.329ZM210.157 227.967H209.411V225.06H210.157V227.967ZM210.157 223.606H209.411V220.698H210.157V223.606ZM210.157 219.244H209.411V216.336H210.157V219.244ZM210.157 214.882H209.411V211.975H210.157V214.882ZM210.157 210.521H209.411V207.613H210.157V210.521ZM210.157 206.159H209.411V203.251H210.157V206.159ZM210.157 201.798H209.411V198.89H210.157V201.798ZM210.157 197.436H209.411V194.528H210.157V197.436ZM210.157 193.074H209.411V190.167H210.157V193.074ZM210.157 188.713H209.411V185.805H210.157V188.713ZM210.157 184.351H209.411V181.443H210.157V184.351ZM210.157 179.99H209.411V177.082H210.157V179.99ZM210.157 175.628H209.411V172.72H210.157V175.628ZM210.157 171.266H209.411V168.359H210.157V171.266ZM210.157 166.905H209.411V163.997H210.157V166.905ZM210.157 162.543H209.411V159.635H210.157V162.543ZM210.157 158.181H209.411V155.274H210.157V158.181Z" fill="#F6F9FC"/>
<path d="M235.558 275.945H234.813V273.037H235.558V275.945ZM235.558 271.584H234.813V268.676H235.558V271.584ZM235.558 267.222H234.813V264.314H235.558V267.222ZM235.558 262.86H234.813V259.953H235.558V262.86ZM235.558 258.499H234.813V255.591H235.558V258.499ZM235.558 254.137H234.813V251.229H235.558V254.137ZM235.558 249.775H234.813V246.868H235.558V249.775ZM235.558 245.414H234.813V242.506H235.558V245.414ZM235.558 241.052H234.813V238.144H235.558V241.052ZM235.558 236.691H234.813V233.783H235.558V236.691ZM235.558 232.329H234.813V229.421H235.558V232.329ZM235.558 227.967H234.813V225.06H235.558V227.967ZM235.558 223.606H234.813V220.698H235.558V223.606ZM235.558 219.244H234.813V216.336H235.558V219.244ZM235.558 214.882H234.813V211.975H235.558V214.882ZM235.558 210.521H234.813V207.613H235.558V210.521ZM235.558 206.159H234.813V203.251H235.558V206.159ZM235.558 201.798H234.813V198.89H235.558V201.798ZM235.558 197.436H234.813V194.528H235.558V197.436ZM235.558 193.074H234.813V190.167H235.558V193.074ZM235.558 188.713H234.813V185.805H235.558V188.713ZM235.558 184.351H234.813V181.443H235.558V184.351ZM235.558 179.99H234.813V177.082H235.558V179.99ZM235.558 175.628H234.813V172.72H235.558V175.628ZM235.558 171.266H234.813V168.359H235.558V171.266ZM235.558 166.905H234.813V163.997H235.558V166.905ZM235.558 162.543H234.813V159.635H235.558V162.543ZM235.558 158.181H234.813V155.274H235.558V158.181Z" fill="#F6F9FC"/>
<path d="M260.96 275.945H260.215V273.037H260.96V275.945ZM260.96 271.584H260.215V268.676H260.96V271.584ZM260.96 267.222H260.215V264.314H260.96V267.222ZM260.96 262.86H260.215V259.953H260.96V262.86ZM260.96 258.499H260.215V255.591H260.96V258.499ZM260.96 254.137H260.215V251.229H260.96V254.137ZM260.96 249.775H260.215V246.868H260.96V249.775ZM260.96 245.414H260.215V242.506H260.96V245.414ZM260.96 241.052H260.215V238.144H260.96V241.052ZM260.96 236.691H260.215V233.783H260.96V236.691ZM260.96 232.329H260.215V229.421H260.96V232.329ZM260.96 227.967H260.215V225.06H260.96V227.967ZM260.96 223.606H260.215V220.698H260.96V223.606ZM260.96 219.244H260.215V216.336H260.96V219.244ZM260.96 214.882H260.215V211.975H260.96V214.882ZM260.96 210.521H260.215V207.613H260.96V210.521ZM260.96 206.159H260.215V203.251H260.96V206.159ZM260.96 201.798H260.215V198.89H260.96V201.798ZM260.96 197.436H260.215V194.528H260.96V197.436ZM260.96 193.074H260.215V190.167H260.96V193.074ZM260.96 188.713H260.215V185.805H260.96V188.713ZM260.96 184.351H260.215V181.443H260.96V184.351ZM260.96 179.99H260.215V177.082H260.96V179.99ZM260.96 175.628H260.215V172.72H260.96V175.628ZM260.96 171.266H260.215V168.359H260.96V171.266ZM260.96 166.905H260.215V163.997H260.96V166.905ZM260.96 162.543H260.215V159.635H260.96V162.543ZM260.96 158.181H260.215V155.274H260.96V158.181Z" fill="#F6F9FC"/>
<path d="M286.362 275.945H285.616V273.037H286.362V275.945ZM286.362 271.584H285.616V268.676H286.362V271.584ZM286.362 267.222H285.616V264.314H286.362V267.222ZM286.362 262.86H285.616V259.953H286.362V262.86ZM286.362 258.499H285.616V255.591H286.362V258.499ZM286.362 254.137H285.616V251.229H286.362V254.137ZM286.362 249.775H285.616V246.868H286.362V249.775ZM286.362 245.414H285.616V242.506H286.362V245.414ZM286.362 241.052H285.616V238.144H286.362V241.052ZM286.362 236.691H285.616V233.783H286.362V236.691ZM286.362 232.329H285.616V229.421H286.362V232.329ZM286.362 227.967H285.616V225.06H286.362V227.967ZM286.362 223.606H285.616V220.698H286.362V223.606ZM286.362 219.244H285.616V216.336H286.362V219.244ZM286.362 214.882H285.616V211.975H286.362V214.882ZM286.362 210.521H285.616V207.613H286.362V210.521ZM286.362 206.159H285.616V203.251H286.362V206.159ZM286.362 201.798H285.616V198.89H286.362V201.798ZM286.362 197.436H285.616V194.528H286.362V197.436ZM286.362 193.074H285.616V190.167H286.362V193.074ZM286.362 188.713H285.616V185.805H286.362V188.713ZM286.362 184.351H285.616V181.443H286.362V184.351ZM286.362 179.99H285.616V177.082H286.362V179.99ZM286.362 175.628H285.616V172.72H286.362V175.628ZM286.362 171.266H285.616V168.359H286.362V171.266ZM286.362 166.905H285.616V163.997H286.362V166.905ZM286.362 162.543H285.616V159.635H286.362V162.543ZM286.362 158.181H285.616V155.274H286.362V158.181Z" fill="#F6F9FC"/>
<path d="M311.763 275.945H311.018V273.037H311.763V275.945ZM311.763 271.584H311.018V268.676H311.763V271.584ZM311.763 267.222H311.018V264.314H311.763V267.222ZM311.763 262.86H311.018V259.953H311.763V262.86ZM311.763 258.499H311.018V255.591H311.763V258.499ZM311.763 254.137H311.018V251.229H311.763V254.137ZM311.763 249.775H311.018V246.868H311.763V249.775ZM311.763 245.414H311.018V242.506H311.763V245.414ZM311.763 241.052H311.018V238.144H311.763V241.052ZM311.763 236.691H311.018V233.783H311.763V236.691ZM311.763 232.329H311.018V229.421H311.763V232.329ZM311.763 227.967H311.018V225.06H311.763V227.967ZM311.763 223.606H311.018V220.698H311.763V223.606ZM311.763 219.244H311.018V216.336H311.763V219.244ZM311.763 214.882H311.018V211.975H311.763V214.882ZM311.763 210.521H311.018V207.613H311.763V210.521ZM311.763 206.159H311.018V203.251H311.763V206.159ZM311.763 201.798H311.018V198.89H311.763V201.798ZM311.763 197.436H311.018V194.528H311.763V197.436ZM311.763 193.074H311.018V190.167H311.763V193.074ZM311.763 188.713H311.018V185.805H311.763V188.713ZM311.763 184.351H311.018V181.443H311.763V184.351ZM311.763 179.99H311.018V177.082H311.763V179.99ZM311.763 175.628H311.018V172.72H311.763V175.628ZM311.763 171.266H311.018V168.359H311.763V171.266ZM311.763 166.905H311.018V163.997H311.763V166.905ZM311.763 162.543H311.018V159.635H311.763V162.543ZM311.763 158.181H311.018V155.274H311.763V158.181Z" fill="#F6F9FC"/>
<path d="M337.165 275.945H336.419V273.037H337.165V275.945ZM337.165 271.584H336.419V268.676H337.165V271.584ZM337.165 267.222H336.419V264.314H337.165V267.222ZM337.165 262.86H336.419V259.953H337.165V262.86ZM337.165 258.499H336.419V255.591H337.165V258.499ZM337.165 254.137H336.419V251.229H337.165V254.137ZM337.165 249.775H336.419V246.868H337.165V249.775ZM337.165 245.414H336.419V242.506H337.165V245.414ZM337.165 241.052H336.419V238.144H337.165V241.052ZM337.165 236.691H336.419V233.783H337.165V236.691ZM337.165 232.329H336.419V229.421H337.165V232.329ZM337.165 227.967H336.419V225.06H337.165V227.967ZM337.165 223.606H336.419V220.698H337.165V223.606ZM337.165 219.244H336.419V216.336H337.165V219.244ZM337.165 214.882H336.419V211.975H337.165V214.882ZM337.165 210.521H336.419V207.613H337.165V210.521ZM337.165 206.159H336.419V203.251H337.165V206.159ZM337.165 201.798H336.419V198.89H337.165V201.798ZM337.165 197.436H336.419V194.528H337.165V197.436ZM337.165 193.074H336.419V190.167H337.165V193.074ZM337.165 188.713H336.419V185.805H337.165V188.713ZM337.165 184.351H336.419V181.443H337.165V184.351ZM337.165 179.99H336.419V177.082H337.165V179.99ZM337.165 175.628H336.419V172.72H337.165V175.628ZM337.165 171.266H336.419V168.359H337.165V171.266ZM337.165 166.905H336.419V163.997H337.165V166.905ZM337.165 162.543H336.419V159.635H337.165V162.543ZM337.165 158.181H336.419V155.274H337.165V158.181Z" fill="#F6F9FC"/>
<path d="M362.567 275.945H361.821V273.037H362.567V275.945ZM362.567 271.584H361.821V268.676H362.567V271.584ZM362.567 267.222H361.821V264.314H362.567V267.222ZM362.567 262.86H361.821V259.953H362.567V262.86ZM362.567 258.499H361.821V255.591H362.567V258.499ZM362.567 254.137H361.821V251.229H362.567V254.137ZM362.567 249.775H361.821V246.868H362.567V249.775ZM362.567 245.414H361.821V242.506H362.567V245.414ZM362.567 241.052H361.821V238.144H362.567V241.052ZM362.567 236.691H361.821V233.783H362.567V236.691ZM362.567 232.329H361.821V229.421H362.567V232.329ZM362.567 227.967H361.821V225.06H362.567V227.967ZM362.567 223.606H361.821V220.698H362.567V223.606ZM362.567 219.244H361.821V216.336H362.567V219.244ZM362.567 214.882H361.821V211.975H362.567V214.882ZM362.567 210.521H361.821V207.613H362.567V210.521ZM362.567 206.159H361.821V203.251H362.567V206.159ZM362.567 201.798H361.821V198.89H362.567V201.798ZM362.567 197.436H361.821V194.528H362.567V197.436ZM362.567 193.074H361.821V190.167H362.567V193.074ZM362.567 188.713H361.821V185.805H362.567V188.713ZM362.567 184.351H361.821V181.443H362.567V184.351ZM362.567 179.99H361.821V177.082H362.567V179.99ZM362.567 175.628H361.821V172.72H362.567V175.628ZM362.567 171.266H361.821V168.359H362.567V171.266ZM362.567 166.905H361.821V163.997H362.567V166.905ZM362.567 162.543H361.821V159.635H362.567V162.543ZM362.567 158.181H361.821V155.274H362.567V158.181Z" fill="#F6F9FC"/>
<path d="M387.968 275.945H387.223V273.037H387.968V275.945ZM387.968 271.584H387.223V268.676H387.968V271.584ZM387.968 267.222H387.223V264.314H387.968V267.222ZM387.968 262.86H387.223V259.953H387.968V262.86ZM387.968 258.499H387.223V255.591H387.968V258.499ZM387.968 254.137H387.223V251.229H387.968V254.137ZM387.968 249.775H387.223V246.868H387.968V249.775ZM387.968 245.414H387.223V242.506H387.968V245.414ZM387.968 241.052H387.223V238.144H387.968V241.052ZM387.968 236.691H387.223V233.783H387.968V236.691ZM387.968 232.329H387.223V229.421H387.968V232.329ZM387.968 227.967H387.223V225.06H387.968V227.967ZM387.968 223.606H387.223V220.698H387.968V223.606ZM387.968 219.244H387.223V216.336H387.968V219.244ZM387.968 214.882H387.223V211.975H387.968V214.882ZM387.968 210.521H387.223V207.613H387.968V210.521ZM387.968 206.159H387.223V203.251H387.968V206.159ZM387.968 201.798H387.223V198.89H387.968V201.798ZM387.968 197.436H387.223V194.528H387.968V197.436ZM387.968 193.074H387.223V190.167H387.968V193.074ZM387.968 188.713H387.223V185.805H387.968V188.713ZM387.968 184.351H387.223V181.443H387.968V184.351ZM387.968 179.99H387.223V177.082H387.968V179.99ZM387.968 175.628H387.223V172.72H387.968V175.628ZM387.968 171.266H387.223V168.359H387.968V171.266ZM387.968 166.905H387.223V163.997H387.968V166.905ZM387.968 162.543H387.223V159.635H387.968V162.543ZM387.968 158.181H387.223V155.274H387.968V158.181Z" fill="#F6F9FC"/>
<path d="M413.37 275.945H412.624V273.037H413.37V275.945ZM413.37 271.584H412.624V268.676H413.37V271.584ZM413.37 267.222H412.624V264.314H413.37V267.222ZM413.37 262.86H412.624V259.953H413.37V262.86ZM413.37 258.499H412.624V255.591H413.37V258.499ZM413.37 254.137H412.624V251.229H413.37V254.137ZM413.37 249.775H412.624V246.868H413.37V249.775ZM413.37 245.414H412.624V242.506H413.37V245.414ZM413.37 241.052H412.624V238.144H413.37V241.052ZM413.37 236.691H412.624V233.783H413.37V236.691ZM413.37 232.329H412.624V229.421H413.37V232.329ZM413.37 227.967H412.624V225.06H413.37V227.967ZM413.37 223.606H412.624V220.698H413.37V223.606ZM413.37 219.244H412.624V216.336H413.37V219.244ZM413.37 214.882H412.624V211.975H413.37V214.882ZM413.37 210.521H412.624V207.613H413.37V210.521ZM413.37 206.159H412.624V203.251H413.37V206.159ZM413.37 201.798H412.624V198.89H413.37V201.798ZM413.37 197.436H412.624V194.528H413.37V197.436ZM413.37 193.074H412.624V190.167H413.37V193.074ZM413.37 188.713H412.624V185.805H413.37V188.713ZM413.37 184.351H412.624V181.443H413.37V184.351ZM413.37 179.99H412.624V177.082H413.37V179.99ZM413.37 175.628H412.624V172.72H413.37V175.628ZM413.37 171.266H412.624V168.359H413.37V171.266ZM413.37 166.905H412.624V163.997H413.37V166.905ZM413.37 162.543H412.624V159.635H413.37V162.543ZM413.37 158.181H412.624V155.274H413.37V158.181Z" fill="#F6F9FC"/>
<path d="M438.771 275.945H438.026V273.037H438.771V275.945ZM438.771 271.584H438.026V268.676H438.771V271.584ZM438.771 267.222H438.026V264.314H438.771V267.222ZM438.771 262.86H438.026V259.953H438.771V262.86ZM438.771 258.499H438.026V255.591H438.771V258.499ZM438.771 254.137H438.026V251.229H438.771V254.137ZM438.771 249.775H438.026V246.868H438.771V249.775ZM438.771 245.414H438.026V242.506H438.771V245.414ZM438.771 241.052H438.026V238.144H438.771V241.052ZM438.771 236.691H438.026V233.783H438.771V236.691ZM438.771 232.329H438.026V229.421H438.771V232.329ZM438.771 227.967H438.026V225.06H438.771V227.967ZM438.771 223.606H438.026V220.698H438.771V223.606ZM438.771 219.244H438.026V216.336H438.771V219.244ZM438.771 214.882H438.026V211.975H438.771V214.882ZM438.771 210.521H438.026V207.613H438.771V210.521ZM438.771 206.159H438.026V203.251H438.771V206.159ZM438.771 201.798H438.026V198.89H438.771V201.798ZM438.771 197.436H438.026V194.528H438.771V197.436ZM438.771 193.074H438.026V190.167H438.771V193.074ZM438.771 188.713H438.026V185.805H438.771V188.713ZM438.771 184.351H438.026V181.443H438.771V184.351ZM438.771 179.99H438.026V177.082H438.771V179.99ZM438.771 175.628H438.026V172.72H438.771V175.628ZM438.771 171.266H438.026V168.359H438.771V171.266ZM438.771 166.905H438.026V163.997H438.771V166.905ZM438.771 162.543H438.026V159.635H438.771V162.543ZM438.771 158.181H438.026V155.274H438.771V158.181Z" fill="#F6F9FC"/>
<path d="M464.173 275.945H463.428V273.037H464.173V275.945ZM464.173 271.584H463.428V268.676H464.173V271.584ZM464.173 267.222H463.428V264.314H464.173V267.222ZM464.173 262.86H463.428V259.953H464.173V262.86ZM464.173 258.499H463.428V255.591H464.173V258.499ZM464.173 254.137H463.428V251.229H464.173V254.137ZM464.173 249.775H463.428V246.868H464.173V249.775ZM464.173 245.414H463.428V242.506H464.173V245.414ZM464.173 241.052H463.428V238.144H464.173V241.052ZM464.173 236.691H463.428V233.783H464.173V236.691ZM464.173 232.329H463.428V229.421H464.173V232.329ZM464.173 227.967H463.428V225.06H464.173V227.967ZM464.173 223.606H463.428V220.698H464.173V223.606ZM464.173 219.244H463.428V216.336H464.173V219.244ZM464.173 214.882H463.428V211.975H464.173V214.882ZM464.173 210.521H463.428V207.613H464.173V210.521ZM464.173 206.159H463.428V203.251H464.173V206.159ZM464.173 201.798H463.428V198.89H464.173V201.798ZM464.173 197.436H463.428V194.528H464.173V197.436ZM464.173 193.074H463.428V190.167H464.173V193.074ZM464.173 188.713H463.428V185.805H464.173V188.713ZM464.173 184.351H463.428V181.443H464.173V184.351ZM464.173 179.99H463.428V177.082H464.173V179.99ZM464.173 175.628H463.428V172.72H464.173V175.628ZM464.173 171.266H463.428V168.359H464.173V171.266ZM464.173 166.905H463.428V163.997H464.173V166.905ZM464.173 162.543H463.428V159.635H464.173V162.543ZM464.173 158.181H463.428V155.274H464.173V158.181Z" fill="#F6F9FC"/>
<path d="M489.575 275.945H488.829V273.037H489.575V275.945ZM489.575 271.584H488.829V268.676H489.575V271.584ZM489.575 267.222H488.829V264.314H489.575V267.222ZM489.575 262.86H488.829V259.953H489.575V262.86ZM489.575 258.499H488.829V255.591H489.575V258.499ZM489.575 254.137H488.829V251.229H489.575V254.137ZM489.575 249.775H488.829V246.868H489.575V249.775ZM489.575 245.414H488.829V242.506H489.575V245.414ZM489.575 241.052H488.829V238.144H489.575V241.052ZM489.575 236.691H488.829V233.783H489.575V236.691ZM489.575 232.329H488.829V229.421H489.575V232.329ZM489.575 227.967H488.829V225.06H489.575V227.967ZM489.575 223.606H488.829V220.698H489.575V223.606ZM489.575 219.244H488.829V216.336H489.575V219.244ZM489.575 214.882H488.829V211.975H489.575V214.882ZM489.575 210.521H488.829V207.613H489.575V210.521ZM489.575 206.159H488.829V203.251H489.575V206.159ZM489.575 201.798H488.829V198.89H489.575V201.798ZM489.575 197.436H488.829V194.528H489.575V197.436ZM489.575 193.074H488.829V190.167H489.575V193.074ZM489.575 188.713H488.829V185.805H489.575V188.713ZM489.575 184.351H488.829V181.443H489.575V184.351ZM489.575 179.99H488.829V177.082H489.575V179.99ZM489.575 175.628H488.829V172.72H489.575V175.628ZM489.575 171.266H488.829V168.359H489.575V171.266ZM489.575 166.905H488.829V163.997H489.575V166.905ZM489.575 162.543H488.829V159.635H489.575V162.543ZM489.575 158.181H488.829V155.274H489.575V158.181Z" fill="#F6F9FC"/>
<path d="M184.01 195.619V194.892H186.991V195.619H184.01ZM188.482 195.619V194.892H191.464V195.619H188.482ZM192.955 195.619V194.892H195.937V195.619H192.955ZM197.427 195.619V194.892H200.409V195.619H197.427ZM201.9 195.619V194.892H204.882V195.619H201.9ZM206.373 195.619V194.892H209.354V195.619H206.373ZM210.845 195.619V194.892H213.827V195.619H210.845ZM215.318 195.619V194.892H218.299V195.619H215.318ZM219.79 195.619V194.892H222.772V195.619H219.79ZM224.263 195.619V194.892H227.244V195.619H224.263ZM228.735 195.619V194.892H231.717V195.619H228.735ZM233.208 195.619V194.892H236.19V195.619H233.208ZM237.68 195.619V194.892H240.662V195.619H237.68ZM242.153 195.619V194.892H245.135V195.619H242.153ZM246.626 195.619V194.892H249.607V195.619H246.626ZM251.098 195.619V194.892H254.08V195.619H251.098ZM255.571 195.619V194.892H258.552V195.619H255.571ZM260.043 195.619V194.892H263.025V195.619H260.043ZM264.516 195.619V194.892H267.498V195.619H264.516ZM268.988 195.619V194.892H271.97V195.619H268.988ZM273.461 195.619V194.892H276.443V195.619H273.461ZM277.933 195.619V194.892H280.915V195.619H277.933ZM282.406 195.619V194.892H285.388V195.619H282.406ZM286.879 195.619V194.892H289.86V195.619H286.879ZM291.351 195.619V194.892H294.333V195.619H291.351ZM295.824 195.619V194.892H298.805V195.619H295.824ZM300.296 195.619V194.892H303.278V195.619H300.296ZM304.769 195.619V194.892H307.751V195.619H304.769ZM309.241 195.619V194.892H312.223V195.619H309.241ZM313.714 195.619V194.892H316.696V195.619H313.714ZM318.187 195.619V194.892H321.168V195.619H318.187ZM322.659 195.619V194.892H325.641V195.619H322.659ZM327.132 195.619V194.892H330.113V195.619H327.132ZM331.604 195.619V194.892H334.586V195.619H331.604ZM336.077 195.619V194.892H339.058V195.619H336.077ZM340.549 195.619V194.892H343.531V195.619H340.549ZM345.022 195.619V194.892H348.004V195.619H345.022ZM349.494 195.619V194.892H352.476V195.619H349.494ZM353.967 195.619V194.892H356.949V195.619H353.967ZM358.44 195.619V194.892H361.421V195.619H358.44ZM362.912 195.619V194.892H365.894V195.619H362.912ZM367.385 195.619V194.892H370.366V195.619H367.385ZM371.857 195.619V194.892H374.839V195.619H371.857ZM376.33 195.619V194.892H379.311V195.619H376.33ZM380.802 195.619V194.892H383.784V195.619H380.802ZM385.275 195.619V194.892H388.257V195.619H385.275ZM389.747 195.619V194.892H392.729V195.619H389.747ZM394.22 195.619V194.892H397.202V195.619H394.22ZM398.693 195.619V194.892H401.674V195.619H398.693ZM403.165 195.619V194.892H406.147V195.619H403.165ZM407.638 195.619V194.892H410.619V195.619H407.638ZM412.11 195.619V194.892H415.092V195.619H412.11ZM416.583 195.619V194.892H419.565V195.619H416.583ZM421.055 195.619V194.892H424.037V195.619H421.055ZM425.528 195.619V194.892H428.51V195.619H425.528ZM430 195.619V194.892H432.982V195.619H430ZM434.473 195.619V194.892H437.455V195.619H434.473ZM438.946 195.619V194.892H441.927V195.619H438.946ZM443.418 195.619V194.892H446.4V195.619H443.418ZM447.891 195.619V194.892H450.872V195.619H447.891ZM452.363 195.619V194.892H455.345V195.619H452.363ZM456.836 195.619V194.892H459.818V195.619H456.836ZM461.308 195.619V194.892H464.29V195.619H461.308ZM465.781 195.619V194.892H468.763V195.619H465.781ZM470.254 195.619V194.892H473.235V195.619H470.254ZM474.726 195.619V194.892H477.708V195.619H474.726ZM479.199 195.619V194.892H482.18V195.619H479.199ZM483.671 195.619V194.892H486.653V195.619H483.671ZM488.144 195.619V194.892H489.977V195.619H488.144Z" fill="#F6F9FC"/>
<path d="M184.01 215.609V214.882H186.991V215.609H184.01ZM188.482 215.609V214.882H191.464V215.609H188.482ZM192.955 215.609V214.882H195.937V215.609H192.955ZM197.427 215.609V214.882H200.409V215.609H197.427ZM201.9 215.609V214.882H204.882V215.609H201.9ZM206.373 215.609V214.882H209.354V215.609H206.373ZM210.845 215.609V214.882H213.827V215.609H210.845ZM215.318 215.609V214.882H218.299V215.609H215.318ZM219.79 215.609V214.882H222.772V215.609H219.79ZM224.263 215.609V214.882H227.244V215.609H224.263ZM228.735 215.609V214.882H231.717V215.609H228.735ZM233.208 215.609V214.882H236.19V215.609H233.208ZM237.68 215.609V214.882H240.662V215.609H237.68ZM242.153 215.609V214.882H245.135V215.609H242.153ZM246.626 215.609V214.882H249.607V215.609H246.626ZM251.098 215.609V214.882H254.08V215.609H251.098ZM255.571 215.609V214.882H258.552V215.609H255.571ZM260.043 215.609V214.882H263.025V215.609H260.043ZM264.516 215.609V214.882H267.498V215.609H264.516ZM268.988 215.609V214.882H271.97V215.609H268.988ZM273.461 215.609V214.882H276.443V215.609H273.461ZM277.933 215.609V214.882H280.915V215.609H277.933ZM282.406 215.609V214.882H285.388V215.609H282.406ZM286.879 215.609V214.882H289.86V215.609H286.879ZM291.351 215.609V214.882H294.333V215.609H291.351ZM295.824 215.609V214.882H298.805V215.609H295.824ZM300.296 215.609V214.882H303.278V215.609H300.296ZM304.769 215.609V214.882H307.751V215.609H304.769ZM309.241 215.609V214.882H312.223V215.609H309.241ZM313.714 215.609V214.882H316.696V215.609H313.714ZM318.187 215.609V214.882H321.168V215.609H318.187ZM322.659 215.609V214.882H325.641V215.609H322.659ZM327.132 215.609V214.882H330.113V215.609H327.132ZM331.604 215.609V214.882H334.586V215.609H331.604ZM336.077 215.609V214.882H339.058V215.609H336.077ZM340.549 215.609V214.882H343.531V215.609H340.549ZM345.022 215.609V214.882H348.004V215.609H345.022ZM349.494 215.609V214.882H352.476V215.609H349.494ZM353.967 215.609V214.882H356.949V215.609H353.967ZM358.44 215.609V214.882H361.421V215.609H358.44ZM362.912 215.609V214.882H365.894V215.609H362.912ZM367.385 215.609V214.882H370.366V215.609H367.385ZM371.857 215.609V214.882H374.839V215.609H371.857ZM376.33 215.609V214.882H379.311V215.609H376.33ZM380.802 215.609V214.882H383.784V215.609H380.802ZM385.275 215.609V214.882H388.257V215.609H385.275ZM389.747 215.609V214.882H392.729V215.609H389.747ZM394.22 215.609V214.882H397.202V215.609H394.22ZM398.693 215.609V214.882H401.674V215.609H398.693ZM403.165 215.609V214.882H406.147V215.609H403.165ZM407.638 215.609V214.882H410.619V215.609H407.638ZM412.11 215.609V214.882H415.092V215.609H412.11ZM416.583 215.609V214.882H419.565V215.609H416.583ZM421.055 215.609V214.882H424.037V215.609H421.055ZM425.528 215.609V214.882H428.51V215.609H425.528ZM430 215.609V214.882H432.982V215.609H430ZM434.473 215.609V214.882H437.455V215.609H434.473ZM438.946 215.609V214.882H441.927V215.609H438.946ZM443.418 215.609V214.882H446.4V215.609H443.418ZM447.891 215.609V214.882H450.872V215.609H447.891ZM452.363 215.609V214.882H455.345V215.609H452.363ZM456.836 215.609V214.882H459.818V215.609H456.836ZM461.308 215.609V214.882H464.29V215.609H461.308ZM465.781 215.609V214.882H468.763V215.609H465.781ZM470.254 215.609V214.882H473.235V215.609H470.254ZM474.726 215.609V214.882H477.708V215.609H474.726ZM479.199 215.609V214.882H482.18V215.609H479.199ZM483.671 215.609V214.882H486.653V215.609H483.671ZM488.144 215.609V214.882H489.977V215.609H488.144Z" fill="#F6F9FC"/>
<path d="M184.01 235.6V234.873H186.991V235.6H184.01ZM188.482 235.6V234.873H191.464V235.6H188.482ZM192.955 235.6V234.873H195.937V235.6H192.955ZM197.427 235.6V234.873H200.409V235.6H197.427ZM201.9 235.6V234.873H204.882V235.6H201.9ZM206.373 235.6V234.873H209.354V235.6H206.373ZM210.845 235.6V234.873H213.827V235.6H210.845ZM215.318 235.6V234.873H218.299V235.6H215.318ZM219.79 235.6V234.873H222.772V235.6H219.79ZM224.263 235.6V234.873H227.244V235.6H224.263ZM228.735 235.6V234.873H231.717V235.6H228.735ZM233.208 235.6V234.873H236.19V235.6H233.208ZM237.68 235.6V234.873H240.662V235.6H237.68ZM242.153 235.6V234.873H245.135V235.6H242.153ZM246.626 235.6V234.873H249.607V235.6H246.626ZM251.098 235.6V234.873H254.08V235.6H251.098ZM255.571 235.6V234.873H258.552V235.6H255.571ZM260.043 235.6V234.873H263.025V235.6H260.043ZM264.516 235.6V234.873H267.498V235.6H264.516ZM268.988 235.6V234.873H271.97V235.6H268.988ZM273.461 235.6V234.873H276.443V235.6H273.461ZM277.933 235.6V234.873H280.915V235.6H277.933ZM282.406 235.6V234.873H285.388V235.6H282.406ZM286.879 235.6V234.873H289.86V235.6H286.879ZM291.351 235.6V234.873H294.333V235.6H291.351ZM295.824 235.6V234.873H298.805V235.6H295.824ZM300.296 235.6V234.873H303.278V235.6H300.296ZM304.769 235.6V234.873H307.751V235.6H304.769ZM309.241 235.6V234.873H312.223V235.6H309.241ZM313.714 235.6V234.873H316.696V235.6H313.714ZM318.187 235.6V234.873H321.168V235.6H318.187ZM322.659 235.6V234.873H325.641V235.6H322.659ZM327.132 235.6V234.873H330.113V235.6H327.132ZM331.604 235.6V234.873H334.586V235.6H331.604ZM336.077 235.6V234.873H339.058V235.6H336.077ZM340.549 235.6V234.873H343.531V235.6H340.549ZM345.022 235.6V234.873H348.004V235.6H345.022ZM349.494 235.6V234.873H352.476V235.6H349.494ZM353.967 235.6V234.873H356.949V235.6H353.967ZM358.44 235.6V234.873H361.421V235.6H358.44ZM362.912 235.6V234.873H365.894V235.6H362.912ZM367.385 235.6V234.873H370.366V235.6H367.385ZM371.857 235.6V234.873H374.839V235.6H371.857ZM376.33 235.6V234.873H379.311V235.6H376.33ZM380.802 235.6V234.873H383.784V235.6H380.802ZM385.275 235.6V234.873H388.257V235.6H385.275ZM389.747 235.6V234.873H392.729V235.6H389.747ZM394.22 235.6V234.873H397.202V235.6H394.22ZM398.693 235.6V234.873H401.674V235.6H398.693ZM403.165 235.6V234.873H406.147V235.6H403.165ZM407.638 235.6V234.873H410.619V235.6H407.638ZM412.11 235.6V234.873H415.092V235.6H412.11ZM416.583 235.6V234.873H419.565V235.6H416.583ZM421.055 235.6V234.873H424.037V235.6H421.055ZM425.528 235.6V234.873H428.51V235.6H425.528ZM430 235.6V234.873H432.982V235.6H430ZM434.473 235.6V234.873H437.455V235.6H434.473ZM438.946 235.6V234.873H441.927V235.6H438.946ZM443.418 235.6V234.873H446.4V235.6H443.418ZM447.891 235.6V234.873H450.872V235.6H447.891ZM452.363 235.6V234.873H455.345V235.6H452.363ZM456.836 235.6V234.873H459.818V235.6H456.836ZM461.308 235.6V234.873H464.29V235.6H461.308ZM465.781 235.6V234.873H468.763V235.6H465.781ZM470.254 235.6V234.873H473.235V235.6H470.254ZM474.726 235.6V234.873H477.708V235.6H474.726ZM479.199 235.6V234.873H482.18V235.6H479.199ZM483.671 235.6V234.873H486.653V235.6H483.671ZM488.144 235.6V234.873H489.977V235.6H488.144Z" fill="#F6F9FC"/>
<path d="M184.01 255.591V254.864H186.991V255.591H184.01ZM188.482 255.591V254.864H191.464V255.591H188.482ZM192.955 255.591V254.864H195.937V255.591H192.955ZM197.427 255.591V254.864H200.409V255.591H197.427ZM201.9 255.591V254.864H204.882V255.591H201.9ZM206.373 255.591V254.864H209.354V255.591H206.373ZM210.845 255.591V254.864H213.827V255.591H210.845ZM215.318 255.591V254.864H218.299V255.591H215.318ZM219.79 255.591V254.864H222.772V255.591H219.79ZM224.263 255.591V254.864H227.244V255.591H224.263ZM228.735 255.591V254.864H231.717V255.591H228.735ZM233.208 255.591V254.864H236.19V255.591H233.208ZM237.68 255.591V254.864H240.662V255.591H237.68ZM242.153 255.591V254.864H245.135V255.591H242.153ZM246.626 255.591V254.864H249.607V255.591H246.626ZM251.098 255.591V254.864H254.08V255.591H251.098ZM255.571 255.591V254.864H258.552V255.591H255.571ZM260.043 255.591V254.864H263.025V255.591H260.043ZM264.516 255.591V254.864H267.498V255.591H264.516ZM268.988 255.591V254.864H271.97V255.591H268.988ZM273.461 255.591V254.864H276.443V255.591H273.461ZM277.933 255.591V254.864H280.915V255.591H277.933ZM282.406 255.591V254.864H285.388V255.591H282.406ZM286.879 255.591V254.864H289.86V255.591H286.879ZM291.351 255.591V254.864H294.333V255.591H291.351ZM295.824 255.591V254.864H298.805V255.591H295.824ZM300.296 255.591V254.864H303.278V255.591H300.296ZM304.769 255.591V254.864H307.751V255.591H304.769ZM309.241 255.591V254.864H312.223V255.591H309.241ZM313.714 255.591V254.864H316.696V255.591H313.714ZM318.187 255.591V254.864H321.168V255.591H318.187ZM322.659 255.591V254.864H325.641V255.591H322.659ZM327.132 255.591V254.864H330.113V255.591H327.132ZM331.604 255.591V254.864H334.586V255.591H331.604ZM336.077 255.591V254.864H339.058V255.591H336.077ZM340.549 255.591V254.864H343.531V255.591H340.549ZM345.022 255.591V254.864H348.004V255.591H345.022ZM349.494 255.591V254.864H352.476V255.591H349.494ZM353.967 255.591V254.864H356.949V255.591H353.967ZM358.44 255.591V254.864H361.421V255.591H358.44ZM362.912 255.591V254.864H365.894V255.591H362.912ZM367.385 255.591V254.864H370.366V255.591H367.385ZM371.857 255.591V254.864H374.839V255.591H371.857ZM376.33 255.591V254.864H379.311V255.591H376.33ZM380.802 255.591V254.864H383.784V255.591H380.802ZM385.275 255.591V254.864H388.257V255.591H385.275ZM389.747 255.591V254.864H392.729V255.591H389.747ZM394.22 255.591V254.864H397.202V255.591H394.22ZM398.693 255.591V254.864H401.674V255.591H398.693ZM403.165 255.591V254.864H406.147V255.591H403.165ZM407.638 255.591V254.864H410.619V255.591H407.638ZM412.11 255.591V254.864H415.092V255.591H412.11ZM416.583 255.591V254.864H419.565V255.591H416.583ZM421.055 255.591V254.864H424.037V255.591H421.055ZM425.528 255.591V254.864H428.51V255.591H425.528ZM430 255.591V254.864H432.982V255.591H430ZM434.473 255.591V254.864H437.455V255.591H434.473ZM438.946 255.591V254.864H441.927V255.591H438.946ZM443.418 255.591V254.864H446.4V255.591H443.418ZM447.891 255.591V254.864H450.872V255.591H447.891ZM452.363 255.591V254.864H455.345V255.591H452.363ZM456.836 255.591V254.864H459.818V255.591H456.836ZM461.308 255.591V254.864H464.29V255.591H461.308ZM465.781 255.591V254.864H468.763V255.591H465.781ZM470.254 255.591V254.864H473.235V255.591H470.254ZM474.726 255.591V254.864H477.708V255.591H474.726ZM479.199 255.591V254.864H482.18V255.591H479.199ZM483.671 255.591V254.864H486.653V255.591H483.671ZM488.144 255.591V254.864H489.977V255.591H488.144Z" fill="#F6F9FC"/>
<path d="M184.01 275.582V274.855H186.991V275.582H184.01ZM188.482 275.582V274.855H191.464V275.582H188.482ZM192.955 275.582V274.855H195.937V275.582H192.955ZM197.427 275.582V274.855H200.409V275.582H197.427ZM201.9 275.582V274.855H204.882V275.582H201.9ZM206.373 275.582V274.855H209.354V275.582H206.373ZM210.845 275.582V274.855H213.827V275.582H210.845ZM215.318 275.582V274.855H218.299V275.582H215.318ZM219.79 275.582V274.855H222.772V275.582H219.79ZM224.263 275.582V274.855H227.244V275.582H224.263ZM228.735 275.582V274.855H231.717V275.582H228.735ZM233.208 275.582V274.855H236.19V275.582H233.208ZM237.68 275.582V274.855H240.662V275.582H237.68ZM242.153 275.582V274.855H245.135V275.582H242.153ZM246.626 275.582V274.855H249.607V275.582H246.626ZM251.098 275.582V274.855H254.08V275.582H251.098ZM255.571 275.582V274.855H258.552V275.582H255.571ZM260.043 275.582V274.855H263.025V275.582H260.043ZM264.516 275.582V274.855H267.498V275.582H264.516ZM268.988 275.582V274.855H271.97V275.582H268.988ZM273.461 275.582V274.855H276.443V275.582H273.461ZM277.933 275.582V274.855H280.915V275.582H277.933ZM282.406 275.582V274.855H285.388V275.582H282.406ZM286.879 275.582V274.855H289.86V275.582H286.879ZM291.351 275.582V274.855H294.333V275.582H291.351ZM295.824 275.582V274.855H298.805V275.582H295.824ZM300.296 275.582V274.855H303.278V275.582H300.296ZM304.769 275.582V274.855H307.751V275.582H304.769ZM309.241 275.582V274.855H312.223V275.582H309.241ZM313.714 275.582V274.855H316.696V275.582H313.714ZM318.187 275.582V274.855H321.168V275.582H318.187ZM322.659 275.582V274.855H325.641V275.582H322.659ZM327.132 275.582V274.855H330.113V275.582H327.132ZM331.604 275.582V274.855H334.586V275.582H331.604ZM336.077 275.582V274.855H339.058V275.582H336.077ZM340.549 275.582V274.855H343.531V275.582H340.549ZM345.022 275.582V274.855H348.004V275.582H345.022ZM349.494 275.582V274.855H352.476V275.582H349.494ZM353.967 275.582V274.855H356.949V275.582H353.967ZM358.44 275.582V274.855H361.421V275.582H358.44ZM362.912 275.582V274.855H365.894V275.582H362.912ZM367.385 275.582V274.855H370.366V275.582H367.385ZM371.857 275.582V274.855H374.839V275.582H371.857ZM376.33 275.582V274.855H379.311V275.582H376.33ZM380.802 275.582V274.855H383.784V275.582H380.802ZM385.275 275.582V274.855H388.257V275.582H385.275ZM389.747 275.582V274.855H392.729V275.582H389.747ZM394.22 275.582V274.855H397.202V275.582H394.22ZM398.693 275.582V274.855H401.674V275.582H398.693ZM403.165 275.582V274.855H406.147V275.582H403.165ZM407.638 275.582V274.855H410.619V275.582H407.638ZM412.11 275.582V274.855H415.092V275.582H412.11ZM416.583 275.582V274.855H419.565V275.582H416.583ZM421.055 275.582V274.855H424.037V275.582H421.055ZM425.528 275.582V274.855H428.51V275.582H425.528ZM430 275.582V274.855H432.982V275.582H430ZM434.473 275.582V274.855H437.455V275.582H434.473ZM438.946 275.582V274.855H441.927V275.582H438.946ZM443.418 275.582V274.855H446.4V275.582H443.418ZM447.891 275.582V274.855H450.872V275.582H447.891ZM452.363 275.582V274.855H455.345V275.582H452.363ZM456.836 275.582V274.855H459.818V275.582H456.836ZM461.308 275.582V274.855H464.29V275.582H461.308ZM465.781 275.582V274.855H468.763V275.582H465.781ZM470.254 275.582V274.855H473.235V275.582H470.254ZM474.726 275.582V274.855H477.708V275.582H474.726ZM479.199 275.582V274.855H482.18V275.582H479.199ZM483.671 275.582V274.855H486.653V275.582H483.671ZM488.144 275.582V274.855H489.977V275.582H488.144Z" fill="#F6F9FC"/>
<path opacity="0.65" fill-rule="evenodd" clip-rule="evenodd" d="M489.155 275.463H184.526V259.453C198.991 255.735 222.723 275.379 247.526 259.453C265.628 247.83 274.064 186.569 286.477 187.939C299.569 183.51 298.168 249.71 336.553 257.82C383.137 267.662 398.565 202.015 489.155 275.463Z" fill="#363795"/>
<path opacity="0.65" fill-rule="evenodd" clip-rule="evenodd" d="M184.526 275.463C275.116 223.56 290.544 269.95 337.128 262.995C375.513 257.264 391.743 211.889 404.834 215.018C419.952 215.711 427.38 249.393 445.482 257.607C470.285 268.861 474.69 261.522 489.155 264.149V275.463H184.526Z" fill="#D88E31"/>
<path opacity="0.65" fill-rule="evenodd" clip-rule="evenodd" d="M242.203 259.788C296.318 266.968 317.508 195.293 333.916 180.931C350.324 166.568 369.95 260.965 410.787 248.505C438.011 240.198 464.134 242.018 489.155 253.965V275.463H184.91C187.03 260.226 206.127 255.001 242.203 259.788Z" fill="#FFB300"/>
<path d="M134.066 165.087H85.6884V170.176H134.066V165.087Z" fill="#ECF1F7"/>
<path d="M123.316 148.368H85.6884V153.456H123.316V148.368Z" fill="#ECF1F7"/>
<path d="M142.129 131.648H85.6884V136.737H142.129V131.648Z" fill="#ECF1F7"/>
<path d="M254.243 124.015H183.98V129.104H254.243V124.015Z" fill="#ECF1F7"/>
<path d="M489.989 124.015H459.272V129.104H489.989V124.015Z" fill="#ECF1F7"/>
<path d="M450.826 124.015H420.11V129.104H450.826V124.015Z" fill="#ECF1F7"/>
<path opacity="0.15" d="M411.663 124.015H380.947V129.104H411.663V124.015Z" fill="#6B15B6"/>
<path d="M125.619 114.929H85.6884V120.017H125.619V114.929Z" fill="#ECF1F7"/>
<path d="M119.86 98.2091H85.6884V103.298H119.86V98.2091Z" fill="#ECF1F7"/>
<path d="M136.37 81.4896H85.6884V86.5781H136.37V81.4896Z" fill="#ECF1F7"/>
<path d="M266.145 31.331H173.997V36.4195H266.145V31.331Z" fill="#ECF1F7"/>
<path d="M245.796 71.6759H217.383V76.7645H245.796V71.6759Z" fill="#ECF1F7"/>
<path d="M357.91 71.6759H329.497V76.7645H357.91V71.6759Z" fill="#ECF1F7"/>
<path d="M467.719 71.6759H439.307V76.7645H467.719V71.6759Z" fill="#ECF1F7"/>
<path opacity="0.154835" d="M200.49 77.1279H195.114V82.2165H200.49V77.1279Z" fill="#6B15B6"/>
<path opacity="0.154835" d="M312.603 77.1279H307.228V82.2165H312.603V77.1279Z" fill="#00C9A7"/>
<path opacity="0.154835" d="M423.949 77.1279H418.574V82.2165H423.949V77.1279Z" fill="#FAB633"/>
<path opacity="0.203182" d="M264.225 78.9453H217.383V87.6686H264.225V78.9453Z" fill="#8295A8"/>
<path opacity="0.203182" d="M376.339 78.9453H329.497V87.6686H376.339V78.9453Z" fill="#8295A8"/>
<path opacity="0.203182" d="M486.149 78.9453H439.307V87.6686H486.149V78.9453Z" fill="#8295A8"/>
<path d="M386.706 31.331H379.027V36.4195H386.706V31.331Z" fill="#ECF1F7"/>
<path d="M399.376 31.331H391.697V36.4195H399.376V31.331Z" fill="#ECF1F7"/>
<path d="M411.663 31.331H403.984V36.4195H411.663V31.331Z" fill="#ECF1F7"/>
<path d="M499.203 31.331H448.522V36.4195H499.203V31.331Z" fill="#ECF1F7"/>
<path d="M131.762 31.331H85.6884V36.4195H131.762V31.331Z" fill="#ECF1F7"/>
<path opacity="0.238225" d="M116.788 61.8623H85.6884V66.9509H116.788V61.8623Z" fill="#6B15B6"/>
</g>
<path opacity="0.209542" d="M508.736 23.6839H71.3001V281.474H508.736V23.6839Z" stroke="black" stroke-width="1.25"/>
<path fill-rule="evenodd" clip-rule="evenodd" d="M581 306.069C581 306.069 561.847 315.339 514.18 314.814C513.969 315.339 353.626 317 291.446 317C228.338 317 67.9947 315.339 67.7837 314.814C20.1163 315.339 0.963501 306.069 0.963501 306.069H581Z" fill="url(#paint1_linear)"/>
<path d="M580.949 305.287H0.46524V306.7H580.949V305.287Z" fill="#F2F2F2"/>
<g style="mix-blend-mode:multiply">
<path style="mix-blend-mode:multiply" d="M580.949 305.287H0.46524V306.7H580.949V305.287Z" fill="url(#paint2_linear)" fill-opacity="0.02"/>
</g>
<g opacity="0.205822">
<path opacity="0.205822" d="M580.949 305.287H0.46524V306.7H580.949V305.287Z" fill="black"/>
</g>
<path fill-rule="evenodd" clip-rule="evenodd" d="M289.995 308.641C268.863 308.641 239.707 308.17 234.184 307.228V304.402H345.806V307.228C340.283 308.17 311.127 308.641 289.995 308.641Z" fill="#FAFAFA"/>
<g style="mix-blend-mode:multiply">
<path style="mix-blend-mode:multiply" fill-rule="evenodd" clip-rule="evenodd" d="M289.995 308.641C268.863 308.641 239.707 308.17 234.184 307.228V304.402H345.806V307.228C340.283 308.17 311.127 308.641 289.995 308.641Z" fill="url(#paint3_linear)" fill-opacity="0.03"/>
</g>
<g style="mix-blend-mode:multiply">
<path style="mix-blend-mode:multiply" fill-rule="evenodd" clip-rule="evenodd" d="M289.995 308.641C268.863 308.641 239.707 308.17 234.184 307.228V304.402H345.806V307.228C340.283 308.17 311.127 308.641 289.995 308.641Z" fill="url(#paint4_linear)" fill-opacity="0.04"/>
</g>
<g style="mix-blend-mode:soft-light">
<path style="mix-blend-mode:soft-light" fill-rule="evenodd" clip-rule="evenodd" d="M289.995 308.641C268.863 308.641 239.707 308.17 234.184 307.228V304.402H345.806V307.228C340.283 308.17 311.127 308.641 289.995 308.641Z" fill="url(#paint5_linear)" fill-opacity="0.3"/>
</g>
<defs>
<linearGradient id="paint0_linear" x1="289.53" y1="310.391" x2="289.53" y2="295.993" gradientUnits="userSpaceOnUse">
<stop/>
<stop offset="1" stop-opacity="0"/>
</linearGradient>
<linearGradient id="paint1_linear" x1="290.982" y1="316.972" x2="290.982" y2="306.069" gradientUnits="userSpaceOnUse">
<stop stop-color="#D0D0D0"/>
<stop offset="1" stop-color="#E7E7E7"/>
</linearGradient>
<linearGradient id="paint2_linear" x1="580.949" y1="306.121" x2="0.46524" y2="306.121" gradientUnits="userSpaceOnUse">
<stop/>
<stop offset="0.49649" stop-color="white" stop-opacity="0.5"/>
<stop offset="1"/>
</linearGradient>
<linearGradient id="paint3_linear" x1="289.995" y1="304.489" x2="289.995" y2="308.641" gradientUnits="userSpaceOnUse">
<stop/>
<stop offset="1" stop-color="#999999"/>
</linearGradient>
<linearGradient id="paint4_linear" x1="289.995" y1="306.521" x2="289.995" y2="304.402" gradientUnits="userSpaceOnUse">
<stop stop-opacity="0"/>
<stop offset="1"/>
</linearGradient>
<linearGradient id="paint5_linear" x1="289.995" y1="305.283" x2="289.995" y2="308.641" gradientUnits="userSpaceOnUse">
<stop stop-color="white" stop-opacity="0"/>
<stop offset="1" stop-color="white"/>
</linearGradient>
</defs>
</svg>
